<?xml version="1.0" standalone="no"?>
<!DOCTYPE svg PUBLIC "-//W3C//DTD SVG 20010904//EN"
 "http://www.w3.org/TR/2001/REC-SVG-20010904/DTD/svg10.dtd">
<svg version="1.0" xmlns="http://www.w3.org/2000/svg"
 width="260.000000pt" height="260.000000pt" viewBox="0 0 260.000000 260.000000"
 preserveAspectRatio="xMidYMid meet">
<metadata>
Created by potrace 1.11, written by Peter Selinger 2001-2013
</metadata>
<g transform="translate(0.000000,260.000000) scale(0.100000,-0.100000)"
fill="#000000" stroke="none">
<path d="M1170 2550 c-103 -25 -119 -30 -170 -58 -168 -93 -281 -235 -314
-394 -8 -41 -12 -240 -11 -685 l0 -628 27 -46 c34 -57 87 -105 145 -130 24
-10 47 -18 51 -18 4 1 59 1 123 0 l116 -1 -4 -107 c-13 -346 -11 -369 51 -429
86 -83 225 -66 293 37 30 46 32 69 22 374 l-4 120 157 5 c156 5 157 5 195 36
21 17 51 55 68 85 l30 54 -1 665 -1 665 -26 80 c-32 98 -67 154 -141 228 -69
68 -189 130 -290 151 -93 19 -225 17 -316 -4z"/>
</g>
</svg>
