<?xml version="1.0" encoding="utf-8"?>
<!-- Generator: Adobe Illustrator 16.0.3, SVG Export Plug-In . SVG Version: 6.00 Build 0)  -->
<!DOCTYPE svg PUBLIC "-//W3C//DTD SVG 1.1//EN" "http://www.w3.org/Graphics/SVG/1.1/DTD/svg11.dtd">
<svg version="1.1" id="Layer_1" xmlns="http://www.w3.org/2000/svg" xmlns:xlink="http://www.w3.org/1999/xlink" x="0px" y="0px"
	 width="552.754px" height="850.391px" viewBox="148.818 0 552.754 850.391" enable-background="new 148.818 0 552.754 850.391"
	 xml:space="preserve">
<rect x="148.818" fill="#F4DDBE" width="552.754" height="850.391"/>
<path opacity="0.15" fill="#5E5E5E" enable-background="new    " d="M598.992,146.692c-30.296-44.646-82.913-71.22-146.161-71.22
	h-0.53c-40.395,0-79.192,10.098-110.021,30.295l-49.429,45.177c-16.477,24.98-28.169,54.744-28.169,88.228v114.271v4.784v179.645
	v32.421c0,34.016,37.204,70.157,71.22,70.157h60.591l-4.252,114.271c0,30.295,24.448,54.743,54.743,54.743
	c30.296,0,54.744-24.448,54.744-54.743l-3.188-91.417l0,0l-0.532-22.322h71.752c34.016,0,56.338-35.61,56.338-70.157V358.227v-9.567
	V239.172C626.099,203.562,616.531,171.672,598.992,146.692z"/>
<g>
	<g>
		<path fill="#DFB673" d="M476.748,737.182c0,30.297-24.447,54.744-54.742,54.744c-30.296,0-54.744-24.447-54.744-54.744
			l11.161-322.085c0-30.295,13.287-54.744,43.583-54.744c30.295,0,43.582,24.449,43.582,54.744L476.748,737.182z"/>
		<polygon fill="#C89D67" points="474.092,645.765 369.919,684.564 371.514,623.442 473.03,623.442 		"/>
		<g>
			<path fill="#A6703D" d="M574.013,129.153c9.565,29.232,14.882,60.59,14.882,93.543c0,166.889-135,301.888-301.889,301.888
				c-15.944,0-31.89-1.063-47.303-3.72v32.421c0,34.016,37.205,70.157,71.22,70.157H544.78c34.017,0,56.339-35.61,56.339-70.157
				V341.219v-9.567V222.165C601.651,186.023,591.552,154.665,574.013,129.153z"/>
			<path fill="#B8784A" d="M588.895,222.696c0-32.421-5.315-63.779-14.882-93.543c-29.765-44.646-82.913-70.688-145.63-70.688
				h-0.531c-40.395,0-79.192,10.098-110.02,30.295l-49.429,45.177c-17.008,24.98-28.7,54.212-28.7,87.696v114.271v4.783v180.177
				c15.412,2.657,31.357,3.72,47.303,3.72C453.895,524.584,588.895,389.585,588.895,222.696z"/>
		</g>
	</g>
	<g>
		<g>
			<circle fill="#010101" cx="328.463" cy="420.943" r="20.197"/>
			<circle fill="#010101" cx="524.052" cy="420.943" r="20.197"/>
		</g>
		<g>
			<path fill="#F37473" d="M335.371,483.659c0,11.692-9.566,21.26-21.26,21.26h-11.16c-11.693,0-21.261-9.566-21.261-21.26
				c0-11.692,9.566-21.26,21.261-21.26h11.691C325.805,462.399,335.371,471.967,335.371,483.659z"/>
			<path fill="#F37473" d="M570.823,483.659c0,11.692-9.565,21.26-21.26,21.26H537.87c-11.692,0-21.26-9.566-21.26-21.26
				c0-11.692,9.566-21.26,21.26-21.26h11.692C561.257,462.399,570.823,471.967,570.823,483.659z"/>
		</g>
		<g>
			<path fill="#010101" d="M364.073,454.959v1.063C364.073,455.49,364.073,454.959,364.073,454.959L364.073,454.959z"/>
			<path fill="#010101" d="M409.25,483.659h-29.765c-7.973,0-14.882-25.512-15.414-27.106v7.441c0,17.008,6.91,32.421,18.071,43.582
				C387.99,496.415,397.557,487.911,409.25,483.659z"/>
			<path fill="#010101" d="M488.443,454.959L488.443,454.959c0,0.531,0,1.063,0,1.594c0,0-6.909,27.106-15.413,27.106h-29.231
				c11.691,4.252,20.729,12.756,26.573,23.386c10.631-11.161,17.539-26.574,17.539-43.051v-9.035H488.443L488.443,454.959z"/>
			<path fill="#010101" d="M364.073,456.553L364.073,456.553v-0.53V456.553z"/>
			<path fill="#010101" d="M473.03,441.14h-94.075c-7.972,0-14.35,6.378-14.882,13.819h124.37
				C487.379,447.518,481,441.14,473.03,441.14z"/>
			<path fill="#010101" d="M378.953,483.659h30.297c5.313-2.126,11.16-3.188,17.538-3.188s12.226,1.063,17.539,3.188h28.701
				c8.503,0,15.413-27.106,15.413-27.106c0-0.53,0-1.063,0-1.594h-124.37c0,0.531,0,1.063,0,1.063v0.53
				C364.605,458.68,370.983,483.659,378.953,483.659z"/>
			<path fill="#F37473" d="M444.327,483.659H409.25c-11.693,4.252-21.261,12.756-27.106,23.386
				c11.161,11.693,27.106,18.604,44.114,18.604c17.539,0,33.482-7.441,44.645-19.135
				C465.057,495.884,455.49,487.911,444.327,483.659z"/>
			<path fill="#F37473" d="M409.25,483.659h35.077c-5.313-2.126-11.161-3.188-17.539-3.188S414.565,481.533,409.25,483.659z"/>
		</g>
	</g>
</g>
</svg>
