<?xml version="1.0" encoding="utf-8"?>
<!-- Generator: Adobe Illustrator 21.0.2, SVG Export Plug-In . SVG Version: 6.00 Build 0)  -->
<svg version="1.1" id="Layer_1" xmlns="http://www.w3.org/2000/svg" xmlns:xlink="http://www.w3.org/1999/xlink" x="0px" y="0px"
	 viewBox="0 0 104 160" style="enable-background:new 0 0 104 160;" xml:space="preserve">
<style type="text/css">
	.st0{fill:#F4DDBE;}
	.st1{opacity:0.15;fill:#5E5E5E;}
	.st2{fill:#DFB673;}
	.st3{fill:#C89D67;}
	.st4{fill:#A6703D;}
	.st5{fill:#B8784A;}
	.st6{fill:#010101;}
	.st7{fill:#F37473;}
</style>
<rect x="0" class="st0" width="104" height="160"/>
<path class="st1" d="M84.7,27.6C79,19.2,69.1,14.2,57.2,14.2h-0.1c-7.6,0-14.9,1.9-20.7,5.7l-9.3,8.5C24,33.1,21.8,38.7,21.8,45
	v21.5v0.9v33.8v6.1c0,6.4,7,13.2,13.4,13.2h11.4L45.8,142c0,5.7,4.6,10.3,10.3,10.3c5.7,0,10.3-4.6,10.3-10.3l-0.6-17.2l0,0
	l-0.1-4.2h13.5c6.4,0,10.6-6.7,10.6-13.2V67.4v-1.8V45C89.8,38.3,88,32.3,84.7,27.6z"/>
<g>
	<g>
		<path class="st2" d="M61.7,138.7c0,5.7-4.6,10.3-10.3,10.3c-5.7,0-10.3-4.6-10.3-10.3l2.1-60.6c0-5.7,2.5-10.3,8.2-10.3
			c5.7,0,8.2,4.6,8.2,10.3L61.7,138.7z"/>
		<polygon class="st3" points="61.2,121.5 41.6,128.8 41.9,117.3 61,117.3 		"/>
		<g>
			<path class="st4" d="M80,24.3c1.8,5.5,2.8,11.4,2.8,17.6c0,31.4-25.4,56.8-56.8,56.8c-3,0-6-0.2-8.9-0.7v6.1
				c0,6.4,7,13.2,13.4,13.2h44c6.4,0,10.6-6.7,10.6-13.2V64.2v-1.8V41.8C85.2,35,83.3,29.1,80,24.3z"/>
			<path class="st5" d="M82.8,41.9c0-6.1-1-12-2.8-17.6C74.4,15.9,64.4,11,52.6,11h-0.1c-7.6,0-14.9,1.9-20.7,5.7l-9.3,8.5
				c-3.2,4.7-5.4,10.2-5.4,16.5v21.5v0.9V98c2.9,0.5,5.9,0.7,8.9,0.7C57.4,98.7,82.8,73.3,82.8,41.9z"/>
		</g>
	</g>
	<g>
		<g>
			<circle class="st6" cx="33.8" cy="79.2" r="3.8"/>
			<circle class="st6" cx="70.6" cy="79.2" r="3.8"/>
		</g>
		<g>
			<path class="st7" d="M35.1,91c0,2.2-1.8,4-4,4H29c-2.2,0-4-1.8-4-4c0-2.2,1.8-4,4-4h2.2C33.3,87,35.1,88.8,35.1,91z"/>
			<path class="st7" d="M79.4,91c0,2.2-1.8,4-4,4h-2.2c-2.2,0-4-1.8-4-4c0-2.2,1.8-4,4-4h2.2C77.6,87,79.4,88.8,79.4,91z"/>
		</g>
		<g>
			<path class="st6" d="M40.5,85.6v0.2C40.5,85.7,40.5,85.6,40.5,85.6L40.5,85.6z"/>
			<path class="st6" d="M49,91h-5.6c-1.5,0-2.8-4.7-2.9-5v1.3c0,3.2,1.3,6.1,3.4,8.2C45,93.4,46.8,91.8,49,91z"/>
			<path class="st6" d="M63.9,85.6L63.9,85.6c0,0.1,0,0.2,0,0.3c0,0-1.3,5.1-2.9,5.1h-5.5c2.2,0.8,3.9,2.4,5,4.4
				c2-2.1,3.3-5,3.3-8.1V85.6z"/>
			<path class="st6" d="M40.5,85.9C40.5,85.9,40.5,85.9,40.5,85.9l0-0.1C40.5,85.8,40.5,85.9,40.5,85.9z"/>
			<path class="st6" d="M61,83H43.3c-1.5,0-2.7,1.1-2.8,2.5h23.4C63.7,84.1,62.5,83,61,83z"/>
			<path class="st6" d="M43.3,91H49c1-0.4,2.1-0.6,3.3-0.6c1.2,0,2.3,0.2,3.3,0.6H61c1.6,0,2.9-5.1,2.9-5.1c0-0.1,0-0.2,0-0.3H40.5
				c0,0.1,0,0.2,0,0.2v0.1C40.6,86.3,41.8,91,43.3,91z"/>
			<path class="st7" d="M55.6,91H49c-2.2,0.8-4,2.4-5.1,4.4c2.1,2.2,5.1,3.5,8.3,3.5c3.3,0,6.3-1.4,8.4-3.6
				C59.5,93.3,57.7,91.8,55.6,91z"/>
			<path class="st7" d="M49,91h6.6c-1-0.4-2.1-0.6-3.3-0.6C51.1,90.4,50,90.6,49,91z"/>
		</g>
	</g>
</g>
</svg>
