<?xml version="1.0" encoding="utf-8"?>
<!-- Generator: Adobe Illustrator 16.0.3, SVG Export Plug-In . SVG Version: 6.00 Build 0)  -->
<!DOCTYPE svg PUBLIC "-//W3C//DTD SVG 1.1//EN" "http://www.w3.org/Graphics/SVG/1.1/DTD/svg11.dtd">
<svg version="1.1" id="Layer_1" xmlns="http://www.w3.org/2000/svg" xmlns:xlink="http://www.w3.org/1999/xlink" x="0px" y="0px"
	 width="552.754px" height="850.391px" viewBox="148.818 0 552.754 850.391" enable-background="new 148.818 0 552.754 850.391"
	 xml:space="preserve">
<rect x="148.818" fill="#F4DDBE" width="552.754" height="850.391"/>
<path opacity="0.15" fill="#5E5E5E" enable-background="new    " d="M335.904,651.08h58.464l-3.72,106.299
	c0,29.764,23.917,53.681,53.681,53.681s53.681-23.917,53.681-53.681l-3.721-83.444h0.532l-0.532-22.854h61.653h9.036
	c13.818,0,26.574-7.441,36.673-15.945c13.287-9.566,22.322-25.512,22.322-42.52v-9.566V224.822
	c-5.846-0.531-10.63-1.594-15.413-3.72c-13.287,83.444-58.464,156.259-123.307,205.156l0,0
	c64.311-48.897,110.02-121.712,122.775-205.156c-22.854-9.036-40.394-31.358-40.394-58.464c0-14.351,5.314-28.169,13.818-38.799
	c-4.252,0.532-8.504,2.126-13.287,2.126c-33.484,0-62.185-20.197-73.346-49.429H326.868c-13.819,0-27.638,4.783-37.736,13.287
	c-13.287,9.567-23.917,22.854-23.917,39.862v9.567v347.597v2.126v65.905v27.638C265.215,616.533,302.42,651.08,335.904,651.08z
	 M378.954,478.876L378.954,478.876c-11.692,3.188-21.791,5.314-32.952,7.44l0,0C356.632,484.19,366.731,482.064,378.954,478.876z
	 M296.042,490.568L296.042,490.568c-0.532,0-1.595,0-2.126,0l0,0C294.448,490.568,294.979,490.568,296.042,490.568z"/>
<g>
	<path fill="#DFB673" d="M471.966,739.308c0,29.764-23.917,53.682-53.681,53.682s-53.681-23.918-53.681-53.682l10.63-315.176
		c0-29.763,13.287-53.681,42.52-53.681c29.764,0,42.52,23.917,42.52,53.681L471.966,739.308z"/>
	<polygon fill="#C89D67" points="469.309,656.395 366.731,696.257 368.857,633.541 468.778,633.541 	"/>
	<g>
		<path fill="#A6703D" d="M583.048,203.562c-23.917,152.539-155.728,268.936-314.644,268.936c-9.567,0-19.134-0.531-28.701-1.063
			v65.904v27.638c0,33.484,37.205,68.563,70.688,68.563H530.43h9.036c13.818,0,26.574-7.441,36.673-15.945
			c13.287-9.566,22.322-25.512,22.322-42.52v-9.566V207.283C592.083,206.751,587.831,205.157,583.048,203.562z"/>
		<path fill="#B8784A" d="M582.517,203.562c-22.854-9.035-40.394-31.358-40.394-58.464c0-14.35,5.314-28.169,13.818-38.799
			c-4.252,0.531-8.504,2.126-13.287,2.126c-33.484,0-62.185-20.197-73.346-49.429H301.357c-13.818,0-27.638,4.784-37.736,13.288
			c-13.287,9.567-23.917,22.854-23.917,39.862v10.099v347.597v1.595c9.567,1.063,19.134,1.063,28.701,1.063
			C427.321,472.498,559.131,356.101,582.517,203.562z"/>
	</g>
</g>
<g>
	<circle fill="#010101" cx="316.77" cy="416.691" r="20.197"/>
	<circle fill="#010101" cx="516.612" cy="416.691" r="20.197"/>
</g>
<g>
	<path fill="#F37473" d="M323.679,480.471c0,11.692-9.566,21.791-21.791,21.791h-11.692c-11.693,0-21.791-9.567-21.791-21.791
		c0-12.225,9.566-21.791,21.791-21.791h11.692C314.113,459.211,323.679,468.777,323.679,480.471z"/>
	<path fill="#F37473" d="M564.978,480.471c0,11.692-9.567,21.791-21.792,21.791h-11.692c-11.693,0-21.791-9.567-21.791-21.791
		c0-12.225,9.566-21.791,21.791-21.791h11.692C555.41,459.211,564.978,468.777,564.978,480.471z"/>
</g>
<g>
	<path fill="#010101" d="M355.303,454.239v1.063C355.303,455.302,355.303,454.771,355.303,454.239L355.303,454.239z"/>
	<path fill="#010101" d="M355.303,455.833C355.303,455.833,355.303,456.364,355.303,455.833v-0.531
		C355.303,455.833,355.303,455.833,355.303,455.833z"/>
	<path fill="#010101" d="M480.736,454.239c-1.063-7.441-7.439-13.288-15.412-13.288h-94.606c-7.973,0-14.351,5.847-15.414,13.288
		c0,0.531,0,1.063,0,1.063v0.531v6.91c0,17.007,6.91,32.421,18.071,44.113c5.847-10.63,15.413-19.665,27.106-23.917
		c5.314-2.126,11.692-3.188,17.539-3.188c6.378,0,12.225,1.063,17.54,3.188c11.691,4.252,21.26,12.756,27.105,23.386
		c10.631-11.161,17.539-26.574,17.539-43.582L480.736,454.239L480.736,454.239z"/>
	<path fill="#F37473" d="M436.091,483.471h-35.61c-11.693,4.252-21.26,12.756-27.106,23.917
		c11.161,11.693,27.106,18.603,44.646,18.603c17.54,0,33.485-7.44,45.176-19.134C457.351,495.695,447.784,487.723,436.091,483.471z"
		/>
	<path fill="#F37473" d="M400.481,483.471h35.61c-5.314-2.126-11.693-3.188-17.54-3.188
		C412.174,480.282,406.327,481.345,400.481,483.471z"/>
</g>
</svg>
