<?xml version="1.0" encoding="utf-8"?>
<!-- Generator: Adobe Illustrator 21.0.2, SVG Export Plug-In . SVG Version: 6.00 Build 0)  -->
<svg version="1.1" id="Layer_1" xmlns="http://www.w3.org/2000/svg" xmlns:xlink="http://www.w3.org/1999/xlink" x="0px" y="0px"
	 viewBox="0 0 104 160" style="enable-background:new 0 0 104 160;" xml:space="preserve">
<style type="text/css">
	.st0{fill:#F4DDBE;}
	.st1{opacity:0.15;fill:#5E5E5E;}
	.st2{fill:#DFB673;}
	.st3{fill:#C89D67;}
	.st4{fill:#A6703D;}
	.st5{fill:#B8784A;}
	.st6{fill:#010101;}
	.st7{fill:#F37473;}
</style>
<rect x="0" class="st0" width="104" height="160"/>
<path class="st1" d="M35.2,122.5h11l-0.7,20c0,5.6,4.5,10.1,10.1,10.1c5.6,0,10.1-4.5,10.1-10.1L65,126.8l0.1,0l-0.1-4.3h11.6h1.7
	c2.6,0,5-1.4,6.9-3c2.5-1.8,4.2-4.8,4.2-8v-1.8V42.3c-1.1-0.1-2-0.3-2.9-0.7C84,57.3,75.5,71,63.3,80.2c0,0,0,0,0,0
	C75.4,71,84,57.3,86.4,41.6c-4.3-1.7-7.6-5.9-7.6-11c0-2.7,1-5.3,2.6-7.3c-0.8,0.1-1.6,0.4-2.5,0.4c-6.3,0-11.7-3.8-13.8-9.3H33.5
	c-2.6,0-5.2,0.9-7.1,2.5c-2.5,1.8-4.5,4.3-4.5,7.5v1.8v65.4V92v12.4v5.2C21.9,116,28.9,122.5,35.2,122.5z M43.3,90.1
	C43.3,90.1,43.3,90.1,43.3,90.1c-2.2,0.6-4.1,1-6.2,1.4c0,0,0,0,0,0C39.1,91.1,41,90.7,43.3,90.1z M27.7,92.3
	C27.7,92.3,27.7,92.3,27.7,92.3c-0.1,0-0.3,0-0.4,0c0,0,0,0,0,0C27.4,92.3,27.5,92.3,27.7,92.3z"/>
<g>
	<g>
		<path class="st2" d="M60.8,139.1c0,5.6-4.5,10.1-10.1,10.1c-5.6,0-10.1-4.5-10.1-10.1l2-59.3c0-5.6,2.5-10.1,8-10.1
			c5.6,0,8,4.5,8,10.1L60.8,139.1z"/>
		<polygon class="st3" points="60.3,123.5 41,131 41.4,119.2 60.2,119.2 		"/>
		<g>
			<path class="st4" d="M81.7,38.3C77.2,67,52.4,88.9,22.5,88.9c-1.8,0-3.6-0.1-5.4-0.2v12.4v5.2c0,6.3,7,12.9,13.3,12.9h41.4h1.7
				c2.6,0,5-1.4,6.9-3c2.5-1.8,4.2-4.8,4.2-8v-1.8V39C83.4,38.9,82.6,38.6,81.7,38.3z"/>
			<path class="st5" d="M81.6,38.3c-4.3-1.7-7.6-5.9-7.6-11c0-2.7,1-5.3,2.6-7.3c-0.8,0.1-1.6,0.4-2.5,0.4c-6.3,0-11.7-3.8-13.8-9.3
				H28.7c-2.6,0-5.2,0.9-7.1,2.5c-2.5,1.8-4.5,4.3-4.5,7.5V23v65.4v0.3c1.8,0.2,3.6,0.2,5.4,0.2C52.4,88.9,77.2,67,81.6,38.3z"/>
		</g>
	</g>
	<g>
		<g>
			<circle class="st6" cx="31.6" cy="78.4" r="3.8"/>
			<circle class="st6" cx="69.2" cy="78.4" r="3.8"/>
		</g>
		<g>
			<path class="st7" d="M32.9,90.4c0,2.2-1.8,4.1-4.1,4.1h-2.2c-2.2,0-4.1-1.8-4.1-4.1s1.8-4.1,4.1-4.1h2.2
				C31.1,86.4,32.9,88.2,32.9,90.4z"/>
			<path class="st7" d="M78.3,90.4c0,2.2-1.8,4.1-4.1,4.1H72c-2.2,0-4.1-1.8-4.1-4.1s1.8-4.1,4.1-4.1h2.2
				C76.5,86.4,78.3,88.2,78.3,90.4z"/>
		</g>
		<g>
			<path class="st6" d="M38.5,84.9v0.2C38.5,85,38.5,85,38.5,84.9L38.5,84.9z"/>
			<path class="st6" d="M47.1,90.4h-5.7c-1.6,0-2.8-4.8-2.9-5.2v1.3c0,3.3,1.3,6.3,3.5,8.4C43,92.9,44.9,91.2,47.1,90.4z"/>
			<path class="st6" d="M62.4,84.9L62.4,84.9c0,0.1,0,0.2,0,0.3c0,0-1.3,5.2-2.9,5.2h-5.6c2.2,0.8,4,2.4,5.2,4.5
				c2.1-2.2,3.4-5.1,3.4-8.3V84.9z"/>
			<path class="st6" d="M38.5,85.2C38.5,85.2,38.5,85.2,38.5,85.2l0-0.1C38.5,85.2,38.5,85.2,38.5,85.2z"/>
			<path class="st6" d="M59.5,82.3H41.4c-1.5,0-2.7,1.1-2.9,2.6h23.9C62.2,83.4,61,82.3,59.5,82.3z"/>
			<path class="st6" d="M41.4,90.4h5.7c1.1-0.4,2.2-0.6,3.4-0.6c1.2,0,2.3,0.2,3.4,0.6h5.6c1.6,0,2.9-5.2,2.9-5.2c0-0.1,0-0.2,0-0.3
				H38.5c0,0.1,0,0.2,0,0.2v0.1C38.6,85.6,39.8,90.4,41.4,90.4z"/>
			<path class="st7" d="M53.9,90.4h-6.8c-2.2,0.8-4.1,2.5-5.2,4.5c2.2,2.2,5.2,3.6,8.5,3.6c3.4,0,6.4-1.4,8.6-3.7
				C57.9,92.8,56.1,91.2,53.9,90.4z"/>
			<path class="st7" d="M47.1,90.4h6.8c-1.1-0.4-2.2-0.6-3.4-0.6C49.3,89.8,48.2,90,47.1,90.4z"/>
		</g>
	</g>
</g>
</svg>
