<?xml version="1.0" encoding="utf-8"?>
<!-- Generator: Adobe Illustrator 21.0.2, SVG Export Plug-In . SVG Version: 6.00 Build 0)  -->
<svg version="1.1" id="Layer_1" xmlns="http://www.w3.org/2000/svg" xmlns:xlink="http://www.w3.org/1999/xlink" x="0px" y="0px"
	 viewBox="0 0 104 160" style="enable-background:new 0 0 104 160;" xml:space="preserve">
<style type="text/css">
	.st0{fill:#F4DDBE;}
	.st1{fill:#F04E4D;}
	.st2{opacity:0.24;fill:#6D6E71;}
	.st3{fill:#8BCFB6;}
	.st4{fill:#FFFFFF;}
	.st5{fill:#F58C75;}
	.st6{fill:#6D6E71;}
	.st7{fill:#A4D8C4;}
	.st8{font-family:'Raleway-SemiBold';}
	.st9{font-size:5.3888px;}
</style>
<rect x="0" class="st0" width="104" height="160"/>
<path class="st1" d="M80.5,23.7C75.3,16,66.1,11.4,55.2,11.4h-0.1c-19.6,0-32.7,13.9-32.7,28.4v19.9v0.8v31.2v5.6
	c0,5.9,6.4,12.1,12.4,12.1h10.5l-0.7,19.8c0,5.2,4.2,9.5,9.5,9.5c5.2,0,9.5-4.2,9.5-9.5l-0.5-15.9l0,0l-0.1-3.9h12.5
	c5.9,0,9.8-6.2,9.8-12.1V60.5v-1.6v-19C85.3,33.6,83.5,28.1,80.5,23.7z"/>
<path class="st2" d="M30.8,57.8c-1.8,0-3-0.5-3.8-1.5c-0.8-1-1.1-2.5-1.1-4.6c0-2,0.9-7.8,2.6-17.2l-2.2-4.4c3.1-2,5.9-3,8.4-3
	c2.1,0,3.1,1.3,3.1,3.8c0,0.8-0.5,4-1.6,9.4c-1,5.4-1.6,8.7-1.6,9.7c0,2.6,0.4,4.6,1.2,5.9C34.3,57.2,32.6,57.8,30.8,57.8z"/>
<path class="st2" d="M36.8,47c0-4.4,1.5-7.9,4.5-10.7c3-2.7,6.8-4.1,11.3-4.1c2.3,0,4.2,0.4,5.5,1.3c1.4,0.9,2,2,2,3.3
	c0,1.3-0.5,2.4-1.4,3.1c-0.9,0.7-1.9,1.1-3,1.1s-2.1-0.3-2.9-0.9c-0.9-0.6-1.6-1.4-2.1-2.5c-1.7,0.7-3.1,2-4.1,3.8
	c-1,1.8-1.5,3.6-1.5,5.4s0.4,3.3,1.1,4.4s1.6,1.7,2.8,1.7c1.1,0,2.1-0.4,2.8-1.1c0.7-0.8,1.1-1.9,1.1-3.4c4,0,6,0.9,6,2.8
	c0,1.6-1,3.1-3,4.5c-2,1.4-4.7,2.1-8,2.1c-3.3,0-6-1-8.1-3C37.8,52.8,36.8,50.2,36.8,47z"/>
<path class="st2" d="M71.2,57.7c-3.7,0-6.6-1-8.6-2.9c-2-1.9-3-4.5-3-7.8c0-4.4,1.5-7.9,4.5-10.7c3-2.7,6.8-4.1,11.3-4.1
	c2.5,0,4.4,0.6,5.8,1.7c1.3,1.1,2,2.6,2,4.5c0,2.5-1.2,4.6-3.7,6.3c-2.5,1.7-6.3,2.5-11.4,2.6c0.1,1.7,0.5,3.1,1.2,4.1
	c0.7,1,1.6,1.5,2.7,1.5c1.1,0,2-0.4,2.8-1.1c0.8-0.7,1.2-1.9,1.2-3.5c4,0,6,0.9,6,2.8c0,1.6-1,3.1-2.9,4.5
	C76.8,57,74.3,57.7,71.2,57.7z M74.7,37c-1.4,0-2.7,0.7-3.8,2.1c-1.2,1.4-2,3-2.5,4.9c2.7-0.2,4.8-0.8,6.1-1.9
	c1.4-1,2.1-2.1,2.1-3.2c0-0.5-0.2-1-0.5-1.3C75.7,37.2,75.3,37,74.7,37z"/>
<path class="st2" d="M24.2,68.5c0-1.5,0.3-3.1,1-4.7c0.7-1.6,1.6-3.1,2.8-4.4c1.2-1.4,2.8-2.5,4.7-3.3c1.9-0.9,3.9-1.3,6-1.3
	c2.1,0,3.7,0.4,4.9,1.1c1.2,0.8,1.8,1.8,1.8,3.2c0,1.4-0.4,2.4-1.3,3.2c-0.9,0.8-1.9,1.1-3,1.1c-1.1,0-2.2-0.2-3.1-0.7
	c-0.9-0.5-1.6-1.2-2.2-2.1c-1.2,0.6-2.2,1.7-3.1,3.3c-0.9,1.7-1.3,3.3-1.3,5c0,1.7,0.3,3,0.8,4c0.5,1,1.3,1.5,2.3,1.5
	c1,0,1.9-0.5,2.7-1.5s1.2-2.3,1.2-3.7c2.2,0,3.8,0.2,4.7,0.5c1,0.3,1.4,1.1,1.4,2.3c0,1.8-1,3.5-3,5.1c-2,1.6-4.4,2.4-7.4,2.4
	s-5.4-0.9-7.2-2.8C25.1,74.8,24.2,72.1,24.2,68.5z"/>
<path class="st2" d="M45.5,72.9c0-0.9,0.2-2.6,0.7-5.1c0.4-2.5,0.9-4.8,1.4-6.9l-1.7-2.6c2.7-1.2,4.7-1.8,5.8-1.8s1.7,0.7,1.7,2.1
	c0,0.8-0.4,2.4-1.1,4.8l0.3,0.2c1.6-4.7,3.5-7.1,5.9-7.1c1.1,0,1.9,0.3,2.5,1c0.6,0.7,0.9,1.4,0.9,2.2c0,1.2-0.4,2.2-1.3,3.1
	c-0.9,0.9-2.2,1.3-4,1.3c-2.7,0-4.1,2.8-4.1,8.4c0,1.4,0.2,2.4,0.7,3c-1.4,1.1-2.6,1.6-3.7,1.6C46.7,77,45.5,75.6,45.5,72.9z"/>
<path class="st2" d="M69.9,77c-3,0-5.3-0.8-6.9-2.3c-1.6-1.6-2.4-3.7-2.4-6.3c0-3.5,1.2-6.4,3.6-8.6c2.4-2.2,5.5-3.3,9.1-3.3
	c2,0,3.6,0.5,4.6,1.4c1,0.9,1.6,2.1,1.6,3.6c0,2-1,3.7-3,5.1c-2,1.3-5,2-9.2,2.1c0.1,1.4,0.4,2.5,1,3.3c0.6,0.8,1.3,1.2,2.1,1.2
	c0.9,0,1.6-0.3,2.2-0.9s0.9-1.5,0.9-2.8c3.2,0,4.8,0.8,4.8,2.3c0,1.3-0.8,2.5-2.4,3.6C74.4,76.4,72.4,77,69.9,77z M72.7,60.3
	c-1.1,0-2.1,0.6-3.1,1.7c-0.9,1.1-1.6,2.4-2,3.9c2.2-0.2,3.8-0.7,4.9-1.5c1.1-0.8,1.7-1.7,1.7-2.6c0-0.4-0.1-0.8-0.4-1.1
	C73.5,60.4,73.2,60.3,72.7,60.3z"/>
<path class="st2" d="M37.2,91.5l-0.3-0.2c-0.6,1.6-1.4,2.8-2.5,3.7s-2.3,1.3-3.7,1.3c-1.9,0-3.3-0.7-4.5-2.1
	c-1.1-1.4-1.7-3.3-1.7-5.6c0-3.6,1.2-6.7,3.7-9.1c2.4-2.5,5.5-3.7,9.1-3.7c0.9,0,1.8,0.1,2.6,0.3c0.1,0.6,0.2,1.1,0.2,1.6
	c1.1-0.7,2.2-1.1,3.4-1.1c1.6,0,2.4,0.9,2.4,2.6c0,0.6-0.3,2.5-1,5.5c-0.7,3.1-1,5.4-1,6.9c0,1.5,0.3,2.5,1,3.1
	c-1.2,1.1-2.5,1.6-3.8,1.6c-1.3,0-2.3-0.4-2.9-1.2C37.5,94.3,37.2,93.1,37.2,91.5z M30.7,87c0,1.1,0.2,1.9,0.7,2.5
	c0.4,0.6,1.1,0.9,1.9,0.9c0.8,0,1.7-0.3,2.5-0.9c0.8-0.6,1.5-1.5,2-2.5c0.2-2.2,0.6-4.8,1.3-7.8c-2.2,0-4.2,0.8-5.8,2.4
	C31.5,83,30.7,84.9,30.7,87z"/>
<path class="st2" d="M66.8,81.6l0.3,0.2c2.3-4,5.2-6,8.6-6c2.6,0,4,1.3,4,4c0,1.1-0.3,3.1-1,5.8c-0.6,2.7-1,4.8-1,6.1
	c0,1.4,0.2,2.4,0.7,3c-1.2,1.1-2.4,1.6-3.7,1.6c-2.5,0-3.8-1.4-3.8-4.1c0-1,0.3-2.7,1-5.1c0.7-2.4,1-4,1-4.7c0-1-0.4-1.5-1.1-1.5
	c-0.6,0-1.3,0.3-2.1,0.8s-1.5,1.3-2.2,2.2c-0.7,0.9-1.3,2.1-1.7,3.4c-0.5,1.4-0.7,2.8-0.7,4.2c0,1.4,0.2,2.5,0.7,3.1
	c-1.2,1.1-2.4,1.6-3.7,1.6c-2.5,0-3.8-1.4-3.8-4.1c0-1,0.3-2.7,1-5.1c0.7-2.4,1-4,1-4.7c0-1-0.4-1.5-1.1-1.5c-0.6,0-1.3,0.3-2.1,0.8
	c-0.8,0.5-1.5,1.3-2.2,2.2c-0.7,0.9-1.3,2.1-1.7,3.4c-0.5,1.4-0.7,2.8-0.7,4.2c0,1.4,0.2,2.5,0.7,3.1c-1.2,1.1-2.4,1.6-3.7,1.6
	c-2.5,0-3.8-1.4-3.8-4.1c0-0.9,0.2-2.6,0.7-5.1c0.4-2.5,0.9-4.8,1.4-6.9l-1.7-2.6c2.2-1.2,4.2-1.8,6-1.8c1.8,0,2.8,0.8,2.8,2.5
	c0,1.1-0.3,2.2-0.8,3.3l0.3,0.2c2.3-4,5.2-6,8.6-6c1.2,0,2.2,0.3,2.9,0.9c0.7,0.6,1.1,1.5,1.1,2.8C67.2,80.1,67.1,80.9,66.8,81.6z"
	/>
<path class="st3" d="M32.3,56.3c-1.8,0-3-0.5-3.8-1.5c-0.8-1-1.1-2.5-1.1-4.6c0-2,0.9-7.8,2.6-17.2l-2.2-4.4c3.1-2,5.9-3,8.4-3
	c2.1,0,3.1,1.3,3.1,3.8c0,0.8-0.5,4-1.6,9.4c-1,5.4-1.6,8.7-1.6,9.7c0,2.6,0.4,4.6,1.2,5.9C35.7,55.7,34,56.3,32.3,56.3z"/>
<path class="st3" d="M38.3,45.5c0-4.4,1.5-7.9,4.5-10.7c3-2.7,6.8-4.1,11.3-4.1c2.3,0,4.2,0.4,5.5,1.3c1.4,0.9,2,2,2,3.3
	c0,1.3-0.5,2.4-1.4,3.1c-0.9,0.7-1.9,1.1-3,1.1s-2.1-0.3-2.9-0.9c-0.9-0.6-1.6-1.4-2.1-2.5c-1.7,0.7-3.1,2-4.1,3.8
	c-1,1.8-1.5,3.6-1.5,5.4s0.4,3.3,1.1,4.4c0.7,1.1,1.6,1.7,2.8,1.7c1.1,0,2.1-0.4,2.8-1.1c0.7-0.8,1.1-1.9,1.1-3.4c4,0,6,0.9,6,2.8
	c0,1.6-1,3.1-3,4.5c-2,1.4-4.7,2.1-8,2.1c-3.3,0-6-1-8.1-3C39.3,51.3,38.3,48.7,38.3,45.5z"/>
<path class="st3" d="M72.7,56.3c-3.7,0-6.6-1-8.6-2.9c-2-1.9-3-4.5-3-7.8c0-4.4,1.5-7.9,4.5-10.7c3-2.7,6.8-4.1,11.3-4.1
	c2.5,0,4.4,0.6,5.8,1.7c1.3,1.1,2,2.6,2,4.5c0,2.5-1.2,4.6-3.7,6.3c-2.5,1.7-6.3,2.5-11.4,2.6c0.1,1.7,0.5,3.1,1.2,4.1
	c0.7,1,1.6,1.5,2.7,1.5c1.1,0,2-0.4,2.8-1.1c0.8-0.7,1.2-1.9,1.2-3.5c4,0,6,0.9,6,2.8c0,1.6-1,3.1-2.9,4.5
	C78.3,55.6,75.8,56.3,72.7,56.3z M76.2,35.5c-1.4,0-2.7,0.7-3.8,2.1c-1.2,1.4-2,3-2.5,4.9c2.7-0.2,4.8-0.8,6.1-1.9
	c1.4-1,2.1-2.1,2.1-3.2c0-0.5-0.2-1-0.5-1.3C77.2,35.7,76.8,35.5,76.2,35.5z"/>
<path class="st4" d="M25.7,67c0-1.5,0.3-3.1,1-4.7c0.7-1.6,1.6-3.1,2.8-4.4c1.2-1.4,2.8-2.5,4.7-3.3c1.9-0.9,3.9-1.3,6-1.3
	c2.1,0,3.7,0.4,4.9,1.1s1.8,1.8,1.8,3.2c0,1.4-0.4,2.4-1.3,3.2c-0.9,0.8-1.9,1.1-3,1.1c-1.1,0-2.2-0.2-3.1-0.7
	c-0.9-0.5-1.6-1.2-2.2-2.1c-1.2,0.6-2.2,1.7-3.1,3.3c-0.9,1.7-1.3,3.3-1.3,5c0,1.7,0.3,3,0.8,4c0.5,1,1.3,1.5,2.3,1.5
	c1,0,1.9-0.5,2.7-1.5s1.2-2.3,1.2-3.7c2.2,0,3.8,0.2,4.7,0.5c1,0.3,1.4,1.1,1.4,2.3c0,1.8-1,3.5-3,5.1c-2,1.6-4.4,2.4-7.4,2.4
	s-5.4-0.9-7.2-2.8C26.6,73.3,25.7,70.6,25.7,67z"/>
<path class="st4" d="M46.9,71.4c0-0.9,0.2-2.6,0.7-5.1c0.4-2.5,0.9-4.8,1.4-6.9l-1.7-2.6C50,55.6,52,55,53.1,55
	c1.1,0,1.7,0.7,1.7,2.1c0,0.8-0.4,2.4-1.1,4.8L54,62c1.6-4.7,3.5-7.1,5.9-7.1c1.1,0,1.9,0.3,2.5,1c0.6,0.7,0.9,1.4,0.9,2.2
	c0,1.2-0.4,2.2-1.3,3.1c-0.9,0.9-2.2,1.3-4,1.3c-2.7,0-4.1,2.8-4.1,8.4c0,1.4,0.2,2.4,0.7,3c-1.4,1.1-2.6,1.6-3.7,1.6
	C48.2,75.5,46.9,74.1,46.9,71.4z"/>
<path class="st4" d="M71.4,75.5c-3,0-5.3-0.8-6.9-2.3c-1.6-1.6-2.4-3.7-2.4-6.3c0-3.5,1.2-6.4,3.6-8.6c2.4-2.2,5.5-3.3,9.1-3.3
	c2,0,3.6,0.5,4.6,1.4c1,0.9,1.6,2.1,1.6,3.6c0,2-1,3.7-3,5.1c-2,1.3-5,2-9.2,2.1c0.1,1.4,0.4,2.5,1,3.3c0.6,0.8,1.3,1.2,2.1,1.2
	c0.9,0,1.6-0.3,2.2-0.9s0.9-1.5,0.9-2.8c3.2,0,4.8,0.8,4.8,2.3c0,1.3-0.8,2.5-2.4,3.6C75.9,74.9,73.9,75.5,71.4,75.5z M74.2,58.8
	c-1.1,0-2.1,0.6-3.1,1.7c-0.9,1.1-1.6,2.4-2,3.9c2.2-0.2,3.8-0.7,4.9-1.5c1.1-0.8,1.7-1.7,1.7-2.6c0-0.4-0.1-0.8-0.4-1.1
	C75,59,74.6,58.8,74.2,58.8z"/>
<path class="st5" d="M38.7,90l-0.3-0.2c-0.6,1.6-1.4,2.8-2.5,3.7s-2.3,1.3-3.7,1.3c-1.9,0-3.3-0.7-4.5-2.1c-1.1-1.4-1.7-3.3-1.7-5.6
	c0-3.6,1.2-6.7,3.7-9.1c2.4-2.5,5.5-3.7,9.1-3.7c0.9,0,1.8,0.1,2.6,0.3c0.1,0.6,0.2,1.1,0.2,1.6c1.1-0.7,2.2-1.1,3.4-1.1
	c1.6,0,2.4,0.9,2.4,2.6c0,0.6-0.3,2.5-1,5.5c-0.7,3.1-1,5.4-1,6.9c0,1.5,0.3,2.5,1,3.1c-1.2,1.1-2.5,1.6-3.8,1.6
	c-1.3,0-2.3-0.4-2.9-1.2C39,92.9,38.7,91.7,38.7,90z M32.2,85.5c0,1.1,0.2,1.9,0.7,2.5c0.4,0.6,1.1,0.9,1.9,0.9
	c0.8,0,1.7-0.3,2.5-0.9c0.8-0.6,1.5-1.5,2-2.5c0.2-2.2,0.6-4.8,1.3-7.8c-2.2,0-4.2,0.8-5.8,2.4C33,81.6,32.2,83.4,32.2,85.5z"/>
<path class="st5" d="M68.3,80.2l0.3,0.2c2.3-4,5.2-6,8.6-6c2.6,0,4,1.3,4,4c0,1.1-0.3,3.1-1,5.8c-0.6,2.7-1,4.8-1,6.1
	c0,1.4,0.2,2.4,0.7,3c-1.2,1.1-2.4,1.6-3.7,1.6c-2.5,0-3.8-1.4-3.8-4.1c0-1,0.3-2.7,1-5.1c0.7-2.4,1-4,1-4.7c0-1-0.4-1.5-1.1-1.5
	c-0.6,0-1.3,0.3-2.1,0.8c-0.8,0.5-1.5,1.3-2.2,2.2c-0.7,0.9-1.3,2.1-1.7,3.4c-0.5,1.4-0.7,2.8-0.7,4.2c0,1.4,0.2,2.5,0.7,3.1
	c-1.2,1.1-2.4,1.6-3.7,1.6c-2.5,0-3.8-1.4-3.8-4.1c0-1,0.3-2.7,1-5.1c0.7-2.4,1-4,1-4.7c0-1-0.4-1.5-1.1-1.5c-0.6,0-1.3,0.3-2.1,0.8
	c-0.8,0.5-1.5,1.3-2.2,2.2c-0.7,0.9-1.3,2.1-1.7,3.4c-0.5,1.4-0.7,2.8-0.7,4.2c0,1.4,0.2,2.5,0.7,3.1c-1.2,1.1-2.4,1.6-3.7,1.6
	c-2.5,0-3.8-1.4-3.8-4.1c0-0.9,0.2-2.6,0.7-5.1c0.4-2.5,0.9-4.8,1.4-6.9l-1.7-2.6c2.2-1.2,4.2-1.8,6-1.8c1.8,0,2.8,0.8,2.8,2.5
	c0,1.1-0.3,2.2-0.8,3.3l0.3,0.2c2.3-4,5.2-6,8.6-6c1.2,0,2.2,0.3,2.9,0.9c0.7,0.6,1.1,1.5,1.1,2.8C68.6,78.7,68.5,79.4,68.3,80.2z"
	/>
<path class="st3" d="M55.2,117.4c-0.8,0.2-1.5,0.6-1.9,1.1c-0.5,0.5-0.7,1.1-0.7,1.7s0.2,1.1,0.7,1.5c0.4,0.4,1.1,0.6,1.9,0.6
	c0.8,0,2.1-0.2,3.9-0.6c1.8-0.4,3-0.6,3.6-0.6c0.6,0,0.9,0.4,0.9,1.2c0,0.8-0.1,1.5-0.4,2.2c-0.4-0.1-0.9-0.1-1.3-0.1
	c-0.5,0-1,0.1-1.6,0.2c0,1.5-0.2,2.9-0.7,4.2c-0.5,1.2-1.1,2.2-1.9,2.9c-1.6,1.5-3.5,2.2-5.7,2.2c-1.6,0-2.9-0.4-3.7-1.2
	c-0.9-0.8-1.3-1.8-1.3-2.9c0-1.1,0.3-2.2,0.9-3.2c0.6-1,1.5-1.8,2.6-2.5c-0.7-0.4-1.2-1-1.6-1.6c-0.4-0.7-0.5-1.3-0.5-2.1
	c0-1.5,0.7-2.8,2.2-4c1.4-1.2,3.4-1.7,5.8-1.7c1.2,0,2.2,0.2,3,0.7c0.7,0.5,1.1,1.1,1.1,1.8c0,0.7-0.2,1.3-0.7,1.6
	c-0.5,0.4-1,0.6-1.6,0.6c-0.6,0-1.1-0.2-1.6-0.5C55.8,118.4,55.4,117.9,55.2,117.4z M53.6,129.3c0.9,0,1.7-0.4,2.6-1.2
	c0.9-0.8,1.4-2,1.6-3.5c-1.6,0.2-2.7,0.3-3.4,0.3s-1.1,0-1.5-0.1c-0.9,0.9-1.3,1.9-1.3,2.8c0,0.6,0.2,1,0.5,1.3
	C52.6,129.2,53.1,129.3,53.6,129.3z"/>
<path class="st6" d="M51.7,125.5V121l-1.7,3.3h-0.7l-1.7-3.3v4.4h-1.3v-6.7h1.4l2,3.8l2-3.8H53v6.7H51.7z"/>
<path class="st6" d="M54.4,125.5v-6.7h1.3v6.7H54.4z"/>
<path class="st6" d="M57.8,118.8l1.7,2.5l1.7-2.5h1.4l-2.4,3.4l2.3,3.3h-1.4l-1.6-2.4l-1.6,2.4h-1.4l2.3-3.3l-2.4-3.4H57.8z"/>
<path class="st6" d="M48.9,130.3V128l-0.9,1.7h-0.4l-0.9-1.7v2.3h-0.7v-3.5h0.7l1,2l1-2h0.7v3.5H48.9z"/>
<path class="st6" d="M51.3,126.8h0.6l1.3,3.5h-0.7l-0.3-0.9H51l-0.3,0.9H50L51.3,126.8z M52.1,129l-0.5-1.4l-0.5,1.4H52.1z"/>
<path class="st6" d="M55.9,127.4h-1.1v2.9h-0.7v-2.9H53v-0.6h2.9V127.4z"/>
<path class="st6" d="M56,128.6c0-0.2,0-0.4,0.1-0.6c0.1-0.2,0.2-0.4,0.3-0.6s0.3-0.3,0.5-0.4s0.5-0.2,0.7-0.2c0.3,0,0.6,0.1,0.8,0.2
	c0.2,0.1,0.4,0.3,0.5,0.6l-0.5,0.4c0-0.1-0.1-0.2-0.2-0.3c-0.1-0.1-0.1-0.1-0.2-0.2c-0.1,0-0.2-0.1-0.2-0.1s-0.2,0-0.2,0
	c-0.2,0-0.3,0-0.4,0.1c-0.1,0.1-0.2,0.2-0.3,0.3c-0.1,0.1-0.1,0.2-0.2,0.4c0,0.1-0.1,0.3-0.1,0.4c0,0.2,0,0.3,0.1,0.4
	c0.1,0.1,0.1,0.3,0.2,0.4c0.1,0.1,0.2,0.2,0.3,0.3c0.1,0.1,0.3,0.1,0.4,0.1c0.1,0,0.2,0,0.2,0c0.1,0,0.2-0.1,0.2-0.1
	c0.1,0,0.1-0.1,0.2-0.2c0.1-0.1,0.1-0.2,0.2-0.2l0.6,0.3c-0.1,0.1-0.1,0.2-0.2,0.3c-0.1,0.1-0.2,0.2-0.4,0.3
	c-0.1,0.1-0.3,0.1-0.4,0.2c-0.1,0-0.3,0.1-0.4,0.1c-0.3,0-0.5-0.1-0.7-0.2c-0.2-0.1-0.4-0.2-0.5-0.4c-0.2-0.2-0.3-0.4-0.4-0.6
	C56,129,56,128.8,56,128.6z"/>
<path class="st6" d="M62.6,126.8v3.5h-0.7v-1.5h-1.6v1.5h-0.7v-3.5h0.7v1.4h1.6v-1.4H62.6z"/>
<path class="st4" d="M52,125v-4.4l-1.7,3.3h-0.7l-1.7-3.3v4.4h-1.3v-6.7H48l2,3.8l2-3.8h1.4v6.7H52z"/>
<path class="st4" d="M54.7,125v-6.7H56v6.7H54.7z"/>
<path class="st4" d="M58.1,118.4l1.7,2.5l1.7-2.5h1.4l-2.4,3.4l2.3,3.3h-1.4l-1.6-2.4l-1.6,2.4h-1.4l2.3-3.3l-2.4-3.4H58.1z"/>
<path class="st4" d="M49.2,129.9v-2.3l-0.9,1.7h-0.4l-0.9-1.7v2.3h-0.7v-3.5h0.7l1,2l1-2h0.7v3.5H49.2z"/>
<path class="st4" d="M51.6,126.4h0.6l1.3,3.5h-0.7l-0.3-0.9h-1.2l-0.3,0.9h-0.7L51.6,126.4z M52.4,128.6l-0.5-1.4l-0.5,1.4H52.4z"/>
<path class="st4" d="M56.2,127h-1.1v2.9h-0.7V127h-1.1v-0.6h2.9V127z"/>
<path class="st4" d="M56.3,128.1c0-0.2,0-0.4,0.1-0.6c0.1-0.2,0.2-0.4,0.3-0.6s0.3-0.3,0.5-0.4c0.2-0.1,0.5-0.2,0.7-0.2
	c0.3,0,0.6,0.1,0.8,0.2c0.2,0.1,0.4,0.3,0.5,0.6l-0.5,0.4c0-0.1-0.1-0.2-0.2-0.3c-0.1-0.1-0.1-0.1-0.2-0.2c-0.1,0-0.2-0.1-0.2-0.1
	s-0.2,0-0.2,0c-0.2,0-0.3,0-0.4,0.1c-0.1,0.1-0.2,0.2-0.3,0.3c-0.1,0.1-0.1,0.2-0.2,0.4c0,0.1-0.1,0.3-0.1,0.4c0,0.2,0,0.3,0.1,0.4
	c0.1,0.1,0.1,0.3,0.2,0.4c0.1,0.1,0.2,0.2,0.3,0.3c0.1,0.1,0.3,0.1,0.4,0.1c0.1,0,0.2,0,0.2,0c0.1,0,0.2-0.1,0.2-0.1
	c0.1,0,0.1-0.1,0.2-0.2c0.1-0.1,0.1-0.2,0.2-0.2l0.6,0.3c-0.1,0.1-0.1,0.2-0.2,0.3c-0.1,0.1-0.2,0.2-0.4,0.3
	c-0.1,0.1-0.3,0.1-0.4,0.2c-0.1,0-0.3,0.1-0.4,0.1c-0.3,0-0.5-0.1-0.7-0.2c-0.2-0.1-0.4-0.2-0.5-0.4c-0.2-0.2-0.3-0.4-0.4-0.6
	C56.3,128.6,56.3,128.4,56.3,128.1z"/>
<path class="st4" d="M62.9,126.4v3.5h-0.7v-1.5h-1.6v1.5h-0.7v-3.5h0.7v1.4h1.6v-1.4H62.9z"/>
<g>
	<path class="st4" d="M82.8,38.8c-0.1,0,0.2-1,0-2.2c-0.1-1.1-0.7-2.3-1-2.7c-0.3-0.4-1.1-1.4-2.2-1.9c-1-0.5-2-0.6-2-0.7
		c0-0.1,1.1-0.2,2.3,0.2c0.6,0.2,1.2,0.6,1.6,0.9c0.5,0.4,0.8,0.8,0.9,1c0.2,0.2,0.4,0.7,0.6,1.2c0.2,0.5,0.3,1.2,0.3,1.8
		C83.3,37.8,82.9,38.8,82.8,38.8z"/>
</g>
<g>
	<path class="st4" d="M80.3,52.8c0-0.1,0.4-0.4,0.8-0.8c0.4-0.4,0.6-1,0.7-1.2c0.1-0.2,0.2-0.8,0.2-1.4c0-0.6-0.2-1.1-0.2-1.1
		c0.1-0.1,0.5,0.4,0.7,1c0.2,0.6,0.1,1.4,0,1.7c-0.1,0.3-0.5,1-1,1.4C80.9,52.8,80.3,52.9,80.3,52.8z"/>
</g>
<g>
	<path class="st4" d="M60.3,37c-0.1-0.1,0.3-0.6,0.3-1.2c0-0.6-0.3-1.3-0.5-1.5c-0.1-0.3-0.6-0.9-1.1-1.3c-0.5-0.5-1-0.9-0.9-1
		c0.1-0.1,0.6,0.2,1.3,0.5c0.6,0.4,1.2,1,1.4,1.4c0.2,0.3,0.5,1.2,0.3,2C60.9,36.7,60.3,37.1,60.3,37z"/>
</g>
<g>
	<path class="st4" d="M56.7,53.4c0-0.1,0.5-0.3,0.9-0.8c0.4-0.4,0.7-1,0.8-1.3c0.1-0.2,0.3-0.9,0.4-1.5c0.1-0.6,0.2-1.2,0.3-1.2
		c0.1,0,0.2,0.6,0.3,1.2c0,0.7-0.1,1.4-0.3,1.7c-0.1,0.3-0.5,1-1.1,1.4C57.4,53.4,56.8,53.5,56.7,53.4z"/>
</g>
<g>
	<path class="st4" d="M35.9,42c-0.1,0-0.1-1.6,0-3.4c0.2-1.8,0.6-3.8,0.8-4.6c0.2-0.8,0.8-2.8,1.1-4.5c0.1-0.9-0.1-1.6-0.5-2
		c-0.2-0.2-0.4-0.3-0.5-0.5c-0.1-0.1-0.2-0.2-0.2-0.2c0,0,0.1,0,0.3,0.1c0.2,0.1,0.4,0.1,0.7,0.4c0.1,0.1,0.3,0.2,0.4,0.4
		c0.1,0.2,0.2,0.3,0.3,0.5c0.1,0.2,0.1,0.4,0.2,0.7c0,0.2,0,0.5,0,0.7c0,0.9-0.3,1.9-0.4,2.7c-0.2,0.8-0.4,1.5-0.5,1.9
		c-0.2,0.8-0.7,2.8-1,4.5C36.1,40.4,36,42,35.9,42z"/>
</g>
<g>
	<path class="st4" d="M79.6,80.6c-0.1,0-0.1-0.7-0.2-1.4c0-0.7-0.1-1.6-0.2-1.9c-0.1-0.3-0.2-1.1-0.7-1.6c-0.5-0.5-1.2-0.5-1.2-0.6
		c0,0,0.1-0.2,0.4-0.2c0.3,0,0.7,0.1,1.1,0.3c0.8,0.5,1,1.5,1.1,1.9c0.1,0.4,0.1,1.3,0,2C79.8,79.9,79.6,80.6,79.6,80.6z"/>
</g>
<g>
	<path class="st4" d="M67.2,79.8c-0.1,0,0.1-0.7,0.1-1.5c0-0.8-0.3-1.6-0.4-1.9c-0.1-0.3-0.5-1-1.3-1.2c-0.7-0.3-1.4-0.1-1.4-0.2
		c-0.1-0.1,0.6-0.5,1.6-0.3c0.4,0.1,0.9,0.3,1.2,0.6c0.3,0.3,0.5,0.6,0.6,0.8c0.2,0.4,0.4,1.4,0.3,2.2
		C67.7,79.2,67.3,79.9,67.2,79.8z"/>
</g>
<g>
	<path class="st4" d="M54.6,80.5c-0.1,0,0.1-0.7,0.2-1.4c0.1-0.7,0.2-1.5,0.2-1.9c0-0.3,0.1-1.1-0.2-1.6c-0.4-0.5-1-0.6-1-0.7
		c0-0.1,0.8-0.3,1.4,0.4c0.3,0.3,0.5,0.8,0.5,1.1c0.1,0.4,0,0.7,0,0.9c0,0.4-0.2,1.2-0.4,1.9C55,80,54.7,80.5,54.6,80.5z"/>
</g>
<g>
	<path class="st4" d="M44.9,82.6c-0.2-0.1,0.5-3.3,0.7-4.2c0.1-0.2,0.2-0.6,0.3-1c0.1-0.4,0.1-0.8-0.2-1.1c-0.2-0.3-0.6-0.4-0.9-0.4
		c-0.3,0-0.5,0.1-0.5,0c0,0,0.1-0.2,0.5-0.3c0.3-0.1,0.9-0.1,1.3,0.3c0.4,0.4,0.6,1.1,0.5,1.6c-0.1,0.5-0.2,0.8-0.2,1
		C46.1,79.4,45.1,82.6,44.9,82.6z"/>
</g>
<g>
	<path class="st4" d="M32.2,88.9c-0.1,0.1-0.7-0.6-1.1-1.7c-0.4-1-0.5-2.3-0.4-2.8c0-0.5,0.3-1.8,0.8-2.7c0.5-1,1.3-1.6,1.4-1.5
		c0.1,0.1-0.5,0.8-0.9,1.7c-0.4,0.9-0.5,2-0.6,2.5c0,0.5-0.1,1.6,0.2,2.6C31.8,88,32.3,88.8,32.2,88.9z"/>
</g>
<g>
	<path class="st7" d="M45,58.5c-0.1,0,0-0.5,0-1c0-0.5-0.3-1-0.4-1.2c-0.1-0.2-0.4-0.7-0.8-1c-0.4-0.3-0.8-0.5-0.8-0.6
		c0-0.1,0.5-0.1,1.1,0.2c0.5,0.3,1,0.8,1.1,1.1c0.1,0.3,0.3,0.9,0.2,1.5C45.4,58.1,45.1,58.5,45,58.5z"/>
</g>
<g>
	<path class="st7" d="M61.7,59.7c-0.1-0.1,0.2-0.5,0.2-1c0.1-0.5-0.1-1-0.2-1.3c-0.1-0.2-0.3-0.7-0.7-1.1c-0.4-0.4-0.8-0.5-0.8-0.6
		c0-0.1,0.6-0.1,1.1,0.2c0.6,0.3,1,0.9,1.1,1.2c0.1,0.3,0.2,1,0,1.6C62.2,59.4,61.8,59.8,61.7,59.7z"/>
</g>
<g>
	<path class="st7" d="M79.4,61.8c-0.1-0.1,0.3-0.6,0.3-1.3c0.1-0.7-0.1-1.4-0.2-1.7c-0.1-0.3-0.4-1-0.9-1.5
		c-0.5-0.5-1.1-0.7-1.1-0.8c0-0.1,0.7,0,1.4,0.4c0.7,0.4,1.2,1.2,1.3,1.6c0.2,0.4,0.3,1.3,0,2.1C80,61.4,79.5,61.9,79.4,61.8z"/>
</g>
<g>
	<path class="st7" d="M78.7,71.5c-0.1-0.1-0.1-0.3-0.1-0.5c0-0.2-0.1-0.5-0.1-0.6c0-0.1,0-0.4-0.1-0.6c-0.1-0.2-0.2-0.4-0.1-0.5
		c0.1-0.1,0.3,0,0.6,0.3c0.2,0.2,0.4,0.6,0.4,0.7c0,0.2,0,0.5-0.1,0.8C79,71.4,78.8,71.5,78.7,71.5z"/>
</g>
<g>
	<path class="st7" d="M53.2,61.5c-0.1,0,0.1-0.7,0.2-1.4c0.1-0.7,0.2-1.5,0.2-1.8c0-0.3,0.2-1.1-0.1-1.7c-0.1-0.3-0.4-0.4-0.6-0.5
		c-0.2-0.1-0.4,0-0.4-0.1c0,0,0.1-0.2,0.4-0.2c0.3,0,0.7,0.1,1,0.5c0.3,0.3,0.4,0.8,0.4,1.2c0,0.4,0,0.7,0,0.8
		c0,0.4-0.2,1.2-0.4,1.9C53.6,61,53.3,61.6,53.2,61.5z"/>
</g>
<g>
	<path class="st7" d="M43.8,73.4c-0.1-0.1,0.1-0.5,0.1-0.9c0.1-0.5,0.1-1,0.1-1.2c0-0.2,0.1-0.7,0-1.2c0-0.5-0.1-0.9,0-0.9
		c0.1,0,0.4,0.3,0.5,0.8c0.2,0.5,0.2,1.1,0.2,1.3c0,0.3-0.1,0.8-0.4,1.3C44.2,73.1,43.9,73.5,43.8,73.4z"/>
</g>
<path class="st4" d="M75.8,100.7c0.1,0,0.4,0.3,0.3,1c-0.1,0.4-0.2,0.8-0.6,1.2c-0.3,0.4-0.9,0.8-1.6,0.9c-0.4,0.1-0.7,0-1.1-0.1
	c-0.4-0.1-0.8-0.2-1.1-0.5c-0.7-0.5-1.1-1.5-1.1-2.4c0-0.9,0.3-1.8,0.8-2.6c0.5-0.8,1.3-1.4,2.1-1.8c0.8-0.5,1.8-0.7,2.8-0.8
	c1,0,2.1,0.2,3,0.7c1.8,1,3,3.1,2.9,5.1c0,1-0.3,1.9-0.8,2.7c-0.1,0.2-0.2,0.4-0.3,0.5c-0.1,0.2-0.3,0.3-0.4,0.5
	c-0.3,0.3-0.5,0.6-0.8,0.8c-0.3,0.2-0.6,0.5-0.9,0.7c-0.3,0.2-0.6,0.3-0.9,0.5c-0.3,0.2-0.6,0.2-0.8,0.3c-0.3,0.1-0.5,0.2-0.7,0.2
	c-0.9,0.1-2.1,0.3-3.5,0c-1.3-0.2-2.8-0.7-4.2-1.3c-1.4-0.6-2.9-1.4-4.2-2.4c-0.7-0.5-1.4-0.9-2-1.5c-0.6-0.5-1.2-1.1-1.8-1.6
	c-1.2-1-2.3-1.9-3.5-2.6c-1.1-0.7-2.2-1.1-3.2-1.2c-0.5-0.1-0.9-0.1-1.3,0c-0.4,0.1-0.7,0.1-1,0.2c-0.5,0.2-0.9,0.3-1,0.2
	c-0.1-0.1,0.2-0.4,0.7-0.8c0.3-0.2,0.6-0.4,1.1-0.5c0.5-0.1,1-0.3,1.6-0.3c1.2,0,2.6,0.3,4,0.9c1.4,0.6,2.7,1.5,4,2.4
	c0.6,0.5,1.3,0.9,1.9,1.4c0.6,0.4,1.3,0.8,1.9,1.2c1.3,0.8,2.7,1.4,4,1.9c1.3,0.5,2.5,0.8,3.5,0.9c1,0.2,1.8,0,2.4,0
	c0.5-0.2,1.3-0.3,1.9-0.9c0.7-0.6,1.3-1.4,1.4-2.3c0.1-0.9-0.4-2-1.3-2.6c-0.5-0.3-1-0.5-1.6-0.5c-0.6,0-1.2,0.1-1.8,0.4
	c-1.2,0.5-2.1,1.5-2.2,2.5c-0.1,0.5,0.1,0.9,0.4,1.2c0.1,0.2,0.3,0.3,0.5,0.3c0.2,0.1,0.4,0.1,0.6,0.1c0.4,0,0.8-0.1,1-0.3
	c0.3-0.2,0.5-0.5,0.6-0.7C75.7,101.1,75.7,100.7,75.8,100.7z"/>
<path class="st4" d="M33.8,100.7c-0.1,0-0.4,0.3-0.3,1c0.1,0.4,0.2,0.8,0.6,1.2c0.3,0.4,0.9,0.8,1.6,0.9c0.4,0.1,0.7,0,1.1-0.1
	c0.4-0.1,0.8-0.2,1.1-0.5c0.7-0.5,1.1-1.5,1.1-2.4c0-0.9-0.3-1.8-0.8-2.6c-0.5-0.8-1.3-1.4-2.1-1.8c-0.8-0.5-1.8-0.7-2.8-0.8
	c-1,0-2.1,0.2-3,0.7c-1.8,1-3,3.1-2.9,5.1c0,1,0.3,1.9,0.8,2.7c0.1,0.2,0.2,0.4,0.3,0.5c0.1,0.2,0.3,0.3,0.4,0.5
	c0.3,0.3,0.5,0.6,0.8,0.8c0.3,0.2,0.6,0.5,0.9,0.7c0.3,0.2,0.6,0.3,0.9,0.5c0.3,0.2,0.6,0.2,0.8,0.3c0.3,0.1,0.5,0.2,0.7,0.2
	c0.9,0.1,2.1,0.3,3.5,0c1.3-0.2,2.8-0.7,4.2-1.3c1.4-0.6,2.9-1.4,4.2-2.4c0.7-0.5,1.4-0.9,2-1.5c0.6-0.5,1.2-1.1,1.8-1.6
	c1.2-1,2.3-1.9,3.5-2.6c1.1-0.7,2.2-1.1,3.2-1.2c0.5-0.1,0.9-0.1,1.3,0c0.4,0.1,0.7,0.1,1,0.2c0.5,0.2,0.9,0.3,1,0.2
	c0.1-0.1-0.2-0.4-0.7-0.8c-0.3-0.2-0.6-0.4-1.1-0.5c-0.5-0.1-1-0.3-1.6-0.3c-1.2,0-2.6,0.3-4,0.9c-1.4,0.6-2.7,1.5-4,2.4
	c-0.6,0.5-1.3,0.9-1.9,1.4c-0.6,0.4-1.3,0.8-1.9,1.2c-1.3,0.8-2.7,1.4-4,1.9c-1.3,0.5-2.5,0.8-3.5,0.9c-1,0.2-1.8,0-2.4,0
	c-0.5-0.2-1.3-0.3-1.9-0.9c-0.7-0.6-1.3-1.4-1.4-2.3c-0.1-0.9,0.4-2,1.3-2.6c0.5-0.3,1-0.5,1.6-0.5c0.6,0,1.2,0.1,1.8,0.4
	c1.2,0.5,2.1,1.5,2.2,2.5c0.1,0.5-0.1,0.9-0.4,1.2c-0.1,0.2-0.3,0.3-0.5,0.3c-0.2,0.1-0.4,0.1-0.6,0.1c-0.4,0-0.8-0.1-1-0.3
	c-0.3-0.2-0.5-0.5-0.6-0.7C33.8,101.1,33.9,100.7,33.8,100.7z"/>
<text transform="matrix(1 0 0 1 24.0264 151.2744)" class="st1 st8 st9">Made by Lúcia Albornoz</text>
<g>
	<path class="st4" d="M55.2,20.1c0.1,0,0.1,0.4,0.5,0.7c0.2,0.2,0.5,0.3,0.8,0.3c0.3,0,0.7-0.2,0.9-0.4c0.5-0.5,0.3-1.7-0.6-2.1
		c-0.2-0.1-0.4-0.1-0.7-0.1c-0.3,0-0.5,0.1-0.7,0.2c-0.4,0.2-0.8,0.7-0.9,1.1c-0.1,0.5,0,1.1,0.2,1.5c0.3,0.5,0.7,0.8,1.2,1
		c0.5,0.2,1,0.2,1.6,0c0.5-0.1,1-0.4,1.4-0.8c0.7-0.7,0.9-1.7,0.8-2.5c-0.1-0.9-0.5-1.5-0.8-2c-0.3-0.4-0.9-1-1.7-1.3
		c-0.4-0.2-0.9-0.3-1.4-0.3c-0.5,0-1.1,0-1.7,0.2c-1.1,0.3-2.2,1.1-3,2.1c-0.7,1.1-1.1,2.4-1,3.8c0.1,1.4,0.6,2.7,1.3,3.7
		c0.7,1,1.6,1.8,2.5,2.3c1.8,1,3.2,1.1,3.2,1.3c0,0.1-1.5,0.5-3.6-0.4c-1.1-0.4-2.2-1.2-3.2-2.3c-1-1.2-1.8-2.7-2-4.4
		c-0.3-1.7,0-3.7,1-5.3c1-1.6,2.5-2.8,4.1-3.3c0.8-0.3,1.7-0.4,2.4-0.4c0.8,0,1.6,0.1,2.3,0.4c1.4,0.5,2.3,1.4,2.9,2.1
		c0.6,0.7,1.2,1.9,1.3,3.4c0.1,0.7,0,1.6-0.3,2.4c-0.3,0.8-0.8,1.6-1.5,2.2c-1.4,1.3-3.6,1.9-5.6,1c-1.9-0.9-3-3.2-2.4-5.2
		c0.3-1,1.1-1.8,2.1-2.2c0.5-0.2,0.9-0.3,1.4-0.2c0.5,0,1,0.2,1.4,0.4c0.8,0.5,1.3,1.3,1.4,2.1c0.1,0.8-0.2,1.7-0.8,2.1
		c-0.5,0.5-1.2,0.6-1.7,0.5c-0.6-0.1-0.9-0.4-1.1-0.8C54.9,20.5,55.1,20.1,55.2,20.1z"/>
</g>
</svg>
