<?xml version="1.0" encoding="utf-8"?>
<!-- Generator: Adobe Illustrator 16.0.3, SVG Export Plug-In . SVG Version: 6.00 Build 0)  -->
<!DOCTYPE svg PUBLIC "-//W3C//DTD SVG 1.1//EN" "http://www.w3.org/Graphics/SVG/1.1/DTD/svg11.dtd">
<svg version="1.1" id="Layer_1" xmlns="http://www.w3.org/2000/svg" xmlns:xlink="http://www.w3.org/1999/xlink" x="0px" y="0px"
	 width="552.754px" height="850.391px" viewBox="148.818 0 552.754 850.391" enable-background="new 148.818 0 552.754 850.391"
	 xml:space="preserve">
<rect x="148.818" fill="#F4DDBE" width="552.754" height="850.391"/>
<path fill="#F04E4D" d="M576.67,125.964C549.031,85.039,500.135,60.59,442.201,60.59h-0.53
	c-104.174,0-173.799,73.877-173.799,150.944v105.767v4.252V487.38v29.764c0,31.358,34.016,64.312,65.904,64.312h55.808
	l-3.721,105.236c0,27.638,22.322,50.49,50.491,50.49c27.638,0,50.492-22.321,50.492-50.49l-2.657-84.509l0,0l-0.532-20.729h66.438
	c31.356,0,52.086-32.952,52.086-64.312V321.553v-8.504V212.066C602.182,178.582,592.615,149.35,576.67,125.964z"/>
<path opacity="0.24" fill="#6D6E71" enable-background="new    " d="M312.518,274.517c-9.565,0-15.943-2.658-20.196-7.973
	c-4.252-5.315-5.847-13.287-5.847-24.449c0-10.63,4.783-41.457,13.819-91.417l-11.693-23.386
	c16.478-10.63,31.358-15.945,44.646-15.945c11.161,0,16.478,6.91,16.478,20.197c0,4.252-2.658,21.26-8.504,49.96
	c-5.315,28.701-8.504,46.24-8.504,51.555c0,13.819,2.126,24.449,6.378,31.358C331.119,271.328,322.085,274.517,312.518,274.517z"/>
<path opacity="0.24" fill="#6D6E71" enable-background="new    " d="M344.406,217.115c0-23.386,7.974-41.988,23.917-56.87
	c15.945-14.35,36.143-21.791,60.06-21.791c12.225,0,22.322,2.126,29.231,6.909c7.441,4.784,10.63,10.63,10.63,17.54
	c0,6.909-2.656,12.756-7.439,16.476c-4.784,3.721-10.1,5.847-15.945,5.847s-11.161-1.595-15.413-4.784
	c-4.783-3.189-8.504-7.441-11.161-13.287c-9.035,3.72-16.477,10.63-21.791,20.197s-7.973,19.134-7.973,28.701
	c0,9.567,2.126,17.539,5.846,23.386c3.722,5.846,8.504,9.035,14.883,9.035c5.847,0,11.161-2.126,14.882-5.846
	c3.721-4.252,5.847-10.099,5.847-18.071c21.26,0,31.89,4.783,31.89,14.882c0,8.504-5.313,16.476-15.943,23.917
	s-24.98,11.162-42.521,11.162s-31.89-5.315-43.052-15.945C349.723,247.942,344.406,234.123,344.406,217.115z"/>
<path opacity="0.24" fill="#6D6E71" enable-background="new    " d="M527.24,273.985c-19.665,0-35.079-5.315-45.709-15.413
	c-10.63-10.099-15.943-23.917-15.943-41.457c0-23.386,7.973-41.988,23.917-56.87c15.944-14.35,36.142-21.791,60.059-21.791
	c13.288,0,23.386,3.189,30.827,9.035c6.909,5.847,10.63,13.819,10.63,23.917c0,13.287-6.378,24.449-19.665,33.484
	c-13.287,9.036-33.484,13.288-60.591,13.819c0.532,9.036,2.657,16.477,6.378,21.792s8.504,7.972,14.351,7.972
	c5.848,0,10.631-2.126,14.883-5.846c4.252-3.721,6.378-10.099,6.378-18.603c21.26,0,31.89,4.784,31.89,14.882
	c0,8.504-5.315,16.477-15.413,23.917C557.005,270.265,543.718,273.985,527.24,273.985z M545.844,163.966
	c-7.441,0-14.352,3.72-20.197,11.161c-6.378,7.441-10.63,15.945-13.287,26.043c14.352-1.063,25.512-4.252,32.421-10.099
	c7.441-5.315,11.161-11.161,11.161-17.008c0-2.657-1.063-5.315-2.657-6.909C551.157,165.029,549.031,163.966,545.844,163.966z"/>
<path opacity="0.24" fill="#6D6E71" enable-background="new    " d="M277.44,331.386c0-7.972,1.596-16.476,5.314-24.979
	c3.721-8.504,8.504-16.478,14.882-23.386c6.378-7.441,14.882-13.288,24.979-17.54c10.1-4.783,20.729-6.909,31.891-6.909
	c11.16,0,19.665,2.126,26.043,5.846c6.378,4.252,9.566,9.567,9.566,17.008c0,7.441-2.126,12.756-6.91,17.008
	c-4.782,4.252-10.098,5.847-15.943,5.847c-5.847,0-11.693-1.063-16.478-3.721c-4.782-2.657-8.504-6.378-11.691-11.161
	c-6.378,3.189-11.693,9.035-16.478,17.539c-4.783,9.036-6.909,17.54-6.909,26.575c0,9.035,1.595,15.945,4.253,21.26
	c2.656,5.315,6.908,7.973,12.224,7.973c5.314,0,10.099-2.658,14.351-7.973s6.378-12.225,6.378-19.665
	c11.693,0,20.197,1.063,24.98,2.657c5.313,1.595,7.44,5.847,7.44,12.225c0,9.567-5.314,18.603-15.944,27.106
	c-10.63,8.503-23.386,12.756-39.331,12.756c-15.944,0-28.7-4.784-38.267-14.882C282.223,364.871,277.44,350.52,277.44,331.386z"/>
<path opacity="0.24" fill="#6D6E71" enable-background="new    " d="M390.648,354.772c0-4.783,1.063-13.819,3.72-27.106
	c2.127-13.288,4.784-25.512,7.441-36.673l-9.035-13.819c14.35-6.378,24.98-9.567,30.826-9.567c5.847,0,9.035,3.721,9.035,11.162
	c0,4.252-2.125,12.756-5.847,25.512l1.595,1.063c8.504-24.979,18.603-37.736,31.357-37.736c5.848,0,10.1,1.595,13.288,5.315
	c3.188,3.721,4.783,7.441,4.783,11.693c0,6.378-2.126,11.693-6.91,16.477c-4.783,4.783-11.692,6.909-21.26,6.909
	c-14.351,0-21.791,14.882-21.791,44.646c0,7.441,1.063,12.756,3.721,15.945c-7.439,5.846-13.817,8.504-19.665,8.504
	C397.026,376.563,390.648,369.123,390.648,354.772z"/>
<path opacity="0.24" fill="#6D6E71" enable-background="new    " d="M520.331,376.563c-15.944,0-28.17-4.252-36.674-12.225
	c-8.504-8.503-12.756-19.665-12.756-33.483c0-18.603,6.379-34.016,19.134-45.708c12.756-11.693,29.232-17.54,48.366-17.54
	c10.63,0,19.134,2.658,24.449,7.441c5.313,4.784,8.504,11.162,8.504,19.134c0,10.63-5.315,19.666-15.945,27.106
	c-10.63,6.909-26.573,10.63-48.896,11.161c0.53,7.441,2.126,13.288,5.314,17.54c3.188,4.252,6.909,6.378,11.161,6.378
	c4.783,0,8.504-1.595,11.692-4.784s4.784-7.972,4.784-14.882c17.008,0,25.512,4.252,25.512,12.224
	c0,6.91-4.252,13.288-12.756,19.134C544.248,373.375,533.618,376.563,520.331,376.563z M535.214,287.804
	c-5.848,0-11.162,3.189-16.478,9.036c-4.783,5.846-8.504,12.756-10.63,20.728c11.692-1.063,20.196-3.72,26.043-7.972
	c5.847-4.252,9.035-9.036,9.035-13.819c0-2.126-0.531-4.252-2.126-5.847C539.466,288.335,537.87,287.804,535.214,287.804z"/>
<path opacity="0.24" fill="#6D6E71" enable-background="new    " d="M346.532,453.629l-1.595-1.063
	c-3.188,8.504-7.44,14.883-13.287,19.666c-5.847,4.782-12.225,6.907-19.665,6.907c-10.099,0-17.539-3.719-23.917-11.159
	c-5.847-7.441-9.034-17.539-9.034-29.765c0-19.134,6.378-35.61,19.665-48.366c12.755-13.288,29.23-19.666,48.364-19.666
	c4.784,0,9.567,0.532,13.819,1.595c0.53,3.189,1.063,5.847,1.063,8.504c5.848-3.721,11.693-5.847,18.071-5.847
	c8.504,0,12.756,4.784,12.756,13.819c0,3.188-1.595,13.287-5.315,29.232c-3.72,16.476-5.313,28.7-5.313,36.673
	c0,7.972,1.595,13.287,5.313,16.477c-6.378,5.847-13.286,8.504-20.195,8.504s-12.226-2.127-15.413-6.379
	C348.128,468.512,346.532,462.133,346.532,453.629z M311.987,429.713c0,5.846,1.063,10.098,3.721,13.287
	c2.127,3.189,5.847,4.783,10.099,4.783s9.036-1.594,13.288-4.783s7.972-7.973,10.63-13.287c1.063-11.693,3.188-25.512,6.909-41.457
	c-11.693,0-22.323,4.252-30.827,12.756C316.239,408.453,311.987,418.551,311.987,429.713z"/>
<path opacity="0.24" fill="#6D6E71" enable-background="new    " d="M503.856,401.012l1.595,1.063
	c12.225-21.26,27.639-31.89,45.708-31.89c13.819,0,21.261,6.91,21.261,21.26c0,5.847-1.596,16.477-5.314,30.828
	c-3.189,14.349-5.315,25.511-5.315,32.421c0,7.438,1.063,12.756,3.722,15.942c-6.378,5.849-12.756,8.504-19.665,8.504
	c-13.287,0-20.197-7.438-20.197-21.791c0-5.313,1.595-14.35,5.315-27.104c3.72-12.755,5.313-21.259,5.313-24.98
	c0-5.314-2.126-7.973-5.847-7.973c-3.188,0-6.909,1.595-11.161,4.252s-7.972,6.909-11.692,11.693
	c-3.721,4.782-6.909,11.161-9.034,18.069c-2.658,7.441-3.722,14.884-3.722,22.322c0,7.441,1.063,13.289,3.722,16.478
	c-6.379,5.848-12.757,8.504-19.666,8.504c-13.287,0-20.196-7.439-20.196-21.791c0-5.314,1.595-14.351,5.313-27.105
	c3.722-12.756,5.315-21.26,5.315-24.979c0-5.315-2.126-7.974-5.847-7.974c-3.188,0-6.909,1.596-11.161,4.252
	c-4.252,2.657-7.974,6.909-11.693,11.692c-3.72,4.784-6.909,11.161-9.035,18.071c-2.657,7.44-3.721,14.883-3.721,22.321
	c0,7.441,1.063,13.287,3.721,16.478c-6.378,5.848-12.756,8.504-19.665,8.504c-13.287,0-20.196-7.441-20.196-21.791
	c0-4.783,1.063-13.818,3.721-27.105c2.126-13.288,4.783-25.512,7.44-36.673l-9.035-13.819c11.692-6.378,22.322-9.566,31.89-9.566
	s14.882,4.252,14.882,13.287c0,5.847-1.594,11.692-4.252,17.539l1.595,1.063c12.226-21.26,27.639-31.89,45.709-31.89
	c6.378,0,11.692,1.595,15.413,4.783c3.722,3.189,5.848,7.973,5.848,14.882C505.982,393.04,505.449,397.292,503.856,401.012z"/>
<path fill="#8BCFB6" d="M320.49,266.544c-9.566,0-15.943-2.657-20.195-7.972c-4.252-5.315-5.848-13.288-5.848-24.449
	c0-10.63,4.783-41.457,13.818-91.417l-11.691-23.386c16.476-10.63,31.356-15.945,44.646-15.945c11.161,0,16.476,6.909,16.476,20.197
	c0,4.252-2.657,21.26-8.504,49.96c-5.313,28.701-8.504,46.24-8.504,51.555c0,13.819,2.126,24.449,6.378,31.358
	C338.561,263.355,329.526,266.544,320.49,266.544z"/>
<path fill="#8BCFB6" d="M352.38,209.143c0-23.386,7.973-41.988,23.917-56.87c15.944-14.351,36.142-21.792,60.059-21.792
	c12.225,0,22.323,2.126,29.232,6.91c7.44,4.783,10.63,10.63,10.63,17.539c0,6.91-2.657,12.756-7.441,16.477
	c-4.783,3.72-10.098,5.846-15.944,5.846c-5.846,0-11.16-1.594-15.412-4.783c-4.784-3.189-8.504-7.441-11.161-13.288
	c-9.036,3.721-16.478,10.63-21.792,20.197c-5.314,9.567-7.973,19.134-7.973,28.701s2.125,17.54,5.847,23.386
	c3.721,5.847,8.504,9.036,14.882,9.036c5.847,0,11.161-2.126,14.882-5.847c3.721-4.252,5.847-10.098,5.847-18.071
	c21.261,0,31.891,4.784,31.891,14.882c0,8.504-5.315,16.477-15.945,23.917c-10.63,7.44-24.979,11.161-42.52,11.161
	c-17.539,0-31.89-5.315-43.052-15.945C357.695,239.969,352.38,226.15,352.38,209.143z"/>
<path fill="#8BCFB6" d="M535.214,266.544c-19.666,0-35.079-5.315-45.709-15.413c-10.63-10.099-15.944-23.917-15.944-41.457
	c0-23.386,7.972-41.988,23.917-56.87c15.944-14.35,36.142-21.791,60.059-21.791c13.287,0,23.387,3.189,30.827,9.035
	c6.909,5.847,10.63,13.819,10.63,23.917c0,13.287-6.378,24.449-19.666,33.484c-13.286,9.036-33.482,13.288-60.59,13.819
	c0.531,9.036,2.657,16.477,6.378,21.792c3.722,5.315,8.504,7.972,14.352,7.972c5.846,0,10.63-2.126,14.882-5.846
	c4.252-3.721,6.378-10.099,6.378-18.603c21.26,0,31.89,4.784,31.89,14.882c0,8.504-5.314,16.477-15.414,23.917
	C564.978,262.824,551.69,266.544,535.214,266.544z M553.816,155.993c-7.44,0-14.35,3.721-20.196,11.162
	c-6.378,7.441-10.63,15.945-13.287,26.043c14.351-1.063,25.513-4.252,32.422-10.098c7.439-5.315,11.16-11.162,11.16-17.008
	c0-2.658-1.063-5.315-2.656-6.91C559.131,157.056,557.005,155.993,553.816,155.993z"/>
<path fill="#FFFFFF" d="M285.412,323.414c0-7.973,1.594-16.477,5.313-24.98s8.504-16.476,14.882-23.386
	c6.378-7.441,14.882-13.287,24.98-17.539c10.098-4.784,20.728-6.91,31.89-6.91c11.161,0,19.665,2.126,26.043,5.847
	c6.378,3.72,9.566,9.567,9.566,17.008c0,7.441-2.126,12.756-6.909,17.008s-10.1,5.846-15.944,5.846
	c-5.847,0-11.693-1.063-16.477-3.72c-4.783-2.658-8.504-6.378-11.693-11.162c-6.378,3.189-11.692,9.036-16.476,17.54
	c-4.784,9.035-6.91,17.539-6.91,26.575c0,9.035,1.595,15.945,4.252,21.259c2.658,5.315,6.91,7.973,12.225,7.973
	c5.315,0,10.1-2.657,14.352-7.973c4.252-5.314,6.378-12.224,6.378-19.665c11.691,0,20.195,1.063,24.979,2.658
	c5.314,1.594,7.44,5.846,7.44,12.224c0,9.567-5.314,18.603-15.944,27.106s-23.386,12.756-39.331,12.756
	c-15.943,0-28.7-4.783-38.268-14.882C290.196,356.898,285.412,342.548,285.412,323.414z"/>
<path fill="#FFFFFF" d="M398.088,346.8c0-4.784,1.063-13.819,3.721-27.106c2.126-13.287,4.783-25.512,7.441-36.673l-9.036-13.819
	c14.351-6.378,24.979-9.567,30.827-9.567c5.846,0,9.034,3.72,9.034,11.161c0,4.252-2.126,12.756-5.847,25.512l1.595,0.532
	c8.504-24.98,18.604-37.736,31.358-37.736c5.847,0,10.099,1.595,13.287,5.315c3.188,3.721,4.783,7.441,4.783,11.693
	c0,6.378-2.127,11.693-6.909,16.477c-4.783,4.783-11.693,6.909-21.261,6.909c-14.351,0-21.791,14.882-21.791,44.646
	c0,7.441,1.063,12.756,3.722,15.945c-7.441,5.846-13.819,8.504-19.666,8.504C404.997,368.591,398.088,361.15,398.088,346.8z"/>
<path fill="#FFFFFF" d="M528.304,368.591c-15.944,0-28.169-4.253-36.673-12.225c-8.504-8.504-12.756-19.666-12.756-33.484
	c0-18.602,6.378-34.016,19.134-45.708c12.756-11.692,29.231-17.539,48.366-17.539c10.63,0,19.134,2.657,24.447,7.441
	c5.315,4.783,8.504,11.161,8.504,19.134c0,10.63-5.313,19.665-15.943,27.106c-10.63,6.91-26.575,10.63-48.897,11.162
	c0.531,7.441,2.126,13.287,5.314,17.539s6.91,6.378,11.162,6.378c4.782,0,8.504-1.595,11.691-4.783
	c3.189-3.189,4.783-7.973,4.783-14.882c17.008,0,25.512,4.252,25.512,12.224c0,6.91-4.252,13.288-12.756,19.134
	C552.222,365.402,541.592,368.591,528.304,368.591z M543.186,279.832c-5.846,0-11.161,3.189-16.477,9.035
	c-4.783,5.847-8.504,12.756-10.63,20.729c11.692-1.063,20.196-3.721,26.043-7.973c5.848-4.252,9.035-9.035,9.035-13.819
	c0-2.126-0.531-4.252-2.126-5.846C547.438,280.895,545.312,279.832,543.186,279.832z"/>
<path fill="#F58C75" d="M354.506,445.658l-1.596-1.064c-3.188,8.504-7.439,14.883-13.287,19.666
	c-5.847,4.783-12.225,6.91-19.664,6.91c-10.1,0-17.539-3.721-23.917-11.162c-5.848-7.44-9.036-17.539-9.036-29.764
	c0-19.133,6.378-35.61,19.666-48.366c12.755-13.287,29.23-19.666,48.364-19.666c4.783,0,9.567,0.532,13.819,1.594
	c0.531,3.189,1.063,5.847,1.063,8.504c5.847-3.72,11.692-5.846,18.07-5.846c8.504,0,12.756,4.783,12.756,13.818
	c0,3.189-1.595,13.287-5.314,29.231c-3.721,16.477-5.314,28.701-5.314,36.674c0,7.972,1.595,13.286,5.314,16.477
	c-6.378,5.846-13.287,8.504-20.196,8.504c-6.91,0-12.225-2.127-15.414-6.379C356.101,461.07,354.506,454.693,354.506,445.658z
	 M319.959,421.741c0,5.845,1.063,10.097,3.72,13.287c2.126,3.188,5.847,4.782,10.099,4.782s9.035-1.594,13.287-4.782
	c4.252-3.189,7.973-7.974,10.63-13.287c1.063-11.693,3.189-25.513,6.91-41.457c-11.693,0-22.323,4.252-30.827,12.756
	C324.211,401.012,319.959,410.579,319.959,421.741z"/>
<path fill="#F58C75" d="M511.827,393.571l1.595,1.063c12.225-21.26,27.638-31.89,45.709-31.89c13.817,0,21.26,6.909,21.26,21.26
	c0,5.846-1.595,16.477-5.315,30.826c-3.188,14.351-5.313,25.511-5.313,32.421c0,7.441,1.063,12.756,3.721,15.945
	c-6.378,5.846-12.756,8.504-19.666,8.504c-13.287,0-20.196-7.441-20.196-21.791c0-5.316,1.596-14.353,5.314-27.107
	c3.721-12.756,5.315-21.26,5.315-24.979c0-5.314-2.127-7.972-5.848-7.972c-3.188,0-6.909,1.594-11.161,4.252
	c-4.252,2.657-7.973,6.909-11.691,11.692c-3.722,4.783-6.91,11.161-9.036,18.07c-2.657,7.44-3.721,14.882-3.721,22.323
	c0,7.439,1.063,13.287,3.721,16.478c-6.378,5.846-12.756,8.504-19.665,8.504c-13.287,0-20.196-7.441-20.196-21.793
	c0-5.314,1.594-14.35,5.314-27.105s5.314-21.26,5.314-24.979c0-5.314-2.127-7.973-5.847-7.973c-3.189,0-6.909,1.595-11.161,4.252
	c-4.252,2.658-7.973,6.911-11.693,11.693c-3.72,4.783-6.908,11.161-9.035,18.07c-2.656,7.441-3.721,14.882-3.721,22.324
	c0,7.438,1.063,13.287,3.721,16.475c-6.377,5.849-12.756,8.504-19.664,8.504c-13.288,0-20.197-7.438-20.197-21.791
	c0-4.783,1.063-13.817,3.721-27.104c2.126-13.288,4.783-25.513,7.44-36.674l-9.035-13.818c11.692-6.378,22.323-9.567,31.89-9.567
	c9.567,0,14.882,4.251,14.882,13.288c0,5.846-1.595,11.692-4.252,17.539l1.596,1.063c12.225-21.26,27.638-31.889,45.708-31.889
	c6.378,0,11.692,1.594,15.414,4.784c3.72,3.188,5.846,7.972,5.846,14.882C513.422,385.598,512.891,389.319,511.827,393.571z"/>
<path fill="#8BCFB6" d="M442.201,623.974c-4.252,1.063-7.973,3.189-10.099,5.848c-2.657,2.656-3.721,5.847-3.721,9.034
	c0,3.189,1.063,5.848,3.721,7.974c2.126,2.126,5.847,3.188,10.099,3.188s11.161-1.063,20.729-3.188
	c9.565-2.126,15.944-3.189,19.134-3.189c3.188,0,4.783,2.126,4.783,6.378s-0.531,7.974-2.126,11.693
	c-2.126-0.531-4.783-0.531-6.909-0.531c-2.658,0-5.315,0.531-8.504,1.063c0,7.973-1.063,15.413-3.721,22.323
	c-2.657,6.378-5.848,11.691-10.1,15.412c-8.504,7.974-18.603,11.692-30.295,11.692c-8.504,0-15.413-2.126-19.665-6.378
	c-4.783-4.252-6.91-9.566-6.91-15.413s1.596-11.692,4.784-17.008c3.188-5.314,7.972-9.566,13.818-13.287
	c-3.721-2.126-6.378-5.315-8.504-8.504c-2.126-3.721-2.657-6.909-2.657-11.161c0-7.973,3.721-14.882,11.692-21.26
	c7.44-6.378,18.07-9.036,30.826-9.036c6.378,0,11.693,1.063,15.945,3.721c3.72,2.657,5.846,5.847,5.846,9.567
	c0,3.72-1.063,6.909-3.721,8.504c-2.657,2.126-5.314,3.188-8.504,3.188c-3.188,0-5.846-1.063-8.504-2.656
	C445.391,629.289,443.266,626.631,442.201,623.974z M433.698,687.222c4.783,0,9.035-2.126,13.819-6.378
	c4.783-4.252,7.44-10.63,8.503-18.603c-8.503,1.063-14.35,1.595-18.07,1.595c-3.72,0-5.847,0-7.973-0.531
	c-4.783,4.783-6.909,10.099-6.909,14.882c0,3.188,1.063,5.314,2.657,6.909C428.383,686.69,431.041,687.222,433.698,687.222z"/>
<path fill="#6D6E71" d="M423.6,667.024v-23.917l-9.035,17.539h-3.721l-9.035-17.539v23.386H394.9v-35.61h7.44l10.63,20.197
	l10.63-20.197h6.91v35.61h-6.91V667.024z"/>
<path fill="#6D6E71" d="M437.949,667.024v-35.609h6.909v35.609H437.949z"/>
<path fill="#6D6E71" d="M456.022,631.415l9.035,13.287l9.035-13.287h7.44l-12.756,18.07L481,667.024h-7.439l-8.504-12.757
	l-8.504,12.757h-7.441l12.226-17.539l-12.757-18.07H456.022z"/>
<path fill="#6D6E71" d="M408.718,692.536v-12.224l-4.783,9.034h-2.126l-4.783-9.034v12.224h-3.721v-18.603h3.721l5.314,10.631
	l5.314-10.631h3.721v18.603H408.718z"/>
<path fill="#6D6E71" d="M421.474,673.935h3.188l6.909,18.603h-3.721l-1.594-4.783h-6.379l-1.595,4.783h-3.721L421.474,673.935z
	 M425.726,685.627l-2.657-7.439l-2.657,7.439H425.726z"/>
<path fill="#6D6E71" d="M445.923,677.123h-5.848v15.413h-3.721v-15.413h-5.846v-3.188h15.413L445.923,677.123L445.923,677.123z"/>
<path fill="#6D6E71" d="M446.453,683.501c0-1.063,0-2.126,0.531-3.188c0.532-1.063,1.063-2.125,1.595-3.188s1.596-1.595,2.657-2.126
	c1.063-0.531,2.657-1.063,3.721-1.063c1.596,0,3.188,0.531,4.253,1.063c1.063,0.532,2.126,1.595,2.656,3.189l-2.656,2.125
	c0-0.531-0.531-1.063-1.063-1.595c-0.531-0.53-0.531-0.53-1.063-1.063c-0.531,0-1.063-0.531-1.063-0.531h-1.063
	c-1.063,0-1.596,0-2.126,0.531c-0.531,0.532-1.063,1.063-1.596,1.595c-0.531,0.532-0.531,1.063-1.063,2.126
	c0,0.531-0.532,1.595-0.532,2.126c0,1.063,0,1.595,0.532,2.126c0.531,0.531,0.531,1.595,1.063,2.126
	c0.532,0.531,1.063,1.063,1.596,1.595c0.53,0.531,1.595,0.531,2.126,0.531c0.53,0,1.063,0,1.063,0c0.532,0,1.063-0.531,1.063-0.531
	c0.53,0,0.53-0.532,1.063-1.063c0.532-0.531,0.532-1.063,1.063-1.063l3.188,1.596c-0.531,0.53-0.531,1.063-1.063,1.594
	s-1.063,1.063-2.126,1.595c-0.531,0.531-1.596,0.531-2.127,1.063c-0.53,0-1.595,0.53-2.125,0.53c-1.596,0-2.657-0.53-3.722-1.063
	c-1.063-0.531-2.126-1.063-2.657-2.126c-1.063-1.063-1.595-2.126-2.126-3.188C446.453,685.627,446.453,684.564,446.453,683.501z"/>
<path fill="#6D6E71" d="M481.531,673.935v18.603h-3.72v-7.972h-8.504v7.972h-3.721v-18.603h3.721v7.44h8.504v-7.44H481.531
	L481.531,673.935z"/>
<path fill="#FFFFFF" d="M425.195,664.367v-23.386l-9.035,17.538h-3.721l-9.035-17.538v23.386h-6.909v-35.61h7.44l10.63,20.197
	l10.63-20.197h7.44v35.61H425.195z"/>
<path fill="#FFFFFF" d="M439.545,664.367v-35.61h6.908v35.61H439.545z"/>
<path fill="#FFFFFF" d="M457.615,629.289l9.035,13.287l9.036-13.287h7.439l-12.756,18.07l12.226,17.539h-7.441l-8.504-12.757
	l-8.504,12.757h-7.44l12.226-17.539l-12.756-18.07H457.615z"/>
<path fill="#FFFFFF" d="M410.313,690.41v-12.225l-4.783,9.035h-2.126l-4.784-9.035v12.225h-3.72v-18.603h3.72l5.315,10.63
	l5.315-10.63h3.72v18.603H410.313z"/>
<path fill="#FFFFFF" d="M423.069,671.809h3.189l6.908,18.603h-3.721l-1.595-4.783h-6.378l-1.595,4.783h-3.721L423.069,671.809z
	 M427.321,683.501l-2.657-7.44l-2.656,7.44H427.321z"/>
<path fill="#FFFFFF" d="M447.518,674.997h-5.847v15.413h-3.722v-15.413h-5.847v-3.188h15.414L447.518,674.997L447.518,674.997z"/>
<path fill="#FFFFFF" d="M448.049,680.844c0-1.063,0-2.126,0.53-3.188c0.531-1.063,1.063-2.126,1.596-3.188
	c0.53-1.063,1.594-1.595,2.657-2.126c1.063-0.531,2.656-1.063,3.721-1.063c1.594,0,3.188,0.531,4.252,1.063
	c1.063,0.531,2.126,1.595,2.657,3.188l-2.657,2.126c0-0.531-0.531-1.063-1.063-1.595c-0.53-0.531-0.53-0.531-1.063-1.063
	c-0.532,0-1.063-0.531-1.063-0.531h-1.063c-1.063,0-1.595,0-2.126,0.531c-0.532,0.531-1.063,1.063-1.595,1.595
	c-0.532,0.532-0.531,1.063-1.063,2.126c0,0.531-0.531,1.595-0.531,2.126c0,1.063,0,1.595,0.531,2.126
	c0.532,0.531,0.532,1.595,1.063,2.126c0.53,0.531,1.063,1.063,1.595,1.595c0.531,0.531,1.594,0.531,2.126,0.531
	c0.531,0,1.063,0,1.063,0c0.531,0,1.063-0.531,1.063-0.531c0.531,0,0.531-0.531,1.063-1.063c0.532-0.531,0.531-1.063,1.063-1.063
	l3.188,1.595c-0.53,0.531-0.53,1.063-1.063,1.595c-0.532,0.531-1.063,1.063-2.126,1.595c-0.532,0.531-1.595,0.531-2.126,1.063
	c-0.532,0-1.596,0.531-2.126,0.531c-1.595,0-2.658-0.531-3.722-1.063c-1.063-0.531-2.126-1.063-2.656-2.126
	c-1.063-1.063-1.596-2.126-2.126-3.188C448.049,683.501,448.049,682.438,448.049,680.844z"/>
<path fill="#FFFFFF" d="M483.127,671.809v18.603h-3.722v-7.972h-8.504v7.972h-3.72v-18.603h3.72v7.44h8.504v-7.44H483.127
	L483.127,671.809z"/>
<g>
	<path fill="#FFFFFF" d="M588.895,173.533c-0.531,0,1.063-5.315,0-11.693c-0.531-5.847-3.721-12.225-5.315-14.351
		c-1.594-2.126-5.846-7.441-11.691-10.098c-5.315-2.658-10.63-3.189-10.63-3.721c0-0.531,5.847-1.063,12.225,1.063
		c3.188,1.063,6.378,3.189,8.504,4.784c2.657,2.126,4.252,4.252,4.783,5.315c1.063,1.063,2.126,3.72,3.188,6.378
		c1.063,2.657,1.596,6.378,1.596,9.567C591.552,168.218,589.426,173.533,588.895,173.533z"/>
</g>
<g>
	<path fill="#FFFFFF" d="M575.608,247.942c0-0.532,2.126-2.126,4.252-4.252s3.188-5.315,3.72-6.378
		c0.532-1.063,1.063-4.252,1.063-7.441s-1.063-5.847-1.063-5.847c0.532-0.531,2.658,2.126,3.722,5.315
		c1.063,3.189,0.53,7.441,0,9.036c-0.531,1.594-2.657,5.315-5.314,7.441C578.796,247.942,575.608,248.473,575.608,247.942z"/>
</g>
<g>
	<path fill="#FFFFFF" d="M469.309,163.966c-0.531-0.532,1.594-3.189,1.594-6.378s-1.594-6.91-2.657-7.973
		c-0.53-1.594-3.188-4.783-5.847-6.909c-2.657-2.658-5.314-4.784-4.783-5.315c0.531-0.532,3.189,1.063,6.91,2.657
		c3.188,2.126,6.377,5.315,7.44,7.441c1.063,1.595,2.657,6.378,1.595,10.63C472.496,162.371,469.309,164.497,469.309,163.966z"/>
</g>
<g>
	<path fill="#FFFFFF" d="M450.175,251.131c0-0.532,2.657-1.595,4.782-4.252c2.127-2.126,3.722-5.315,4.252-6.91
		c0.531-1.063,1.596-4.783,2.127-7.972c0.53-3.189,1.063-6.378,1.595-6.378c0.531,0,1.063,3.189,1.595,6.378
		c0,3.72-0.532,7.441-1.595,9.035c-0.532,1.595-2.657,5.315-5.847,7.441C453.895,251.131,450.705,251.662,450.175,251.131z"/>
</g>
<g>
	<path fill="#FFFFFF" d="M339.623,190.541c-0.53,0-0.53-8.504,0-18.071c1.063-9.567,3.188-20.197,4.253-24.449
		c1.063-4.252,4.252-14.882,5.847-23.917c0.531-4.783-0.532-8.504-2.658-10.63c-1.063-1.063-2.126-1.594-2.657-2.657
		c-0.53-0.532-1.063-1.063-1.063-1.063s0.531,0,1.594,0.531c1.063,0.532,2.126,0.532,3.721,2.126
		c0.531,0.532,1.596,1.063,2.126,2.126c0.531,1.063,1.063,1.595,1.596,2.658c0.531,1.063,0.53,2.126,1.063,3.72
		c0,1.063,0,2.658,0,3.721c0,4.783-1.594,10.098-2.126,14.35c-1.063,4.252-2.126,7.973-2.657,10.099
		c-1.063,4.252-3.721,14.882-5.313,23.917C340.687,182.037,340.156,190.541,339.623,190.541z"/>
</g>
<g>
	<path fill="#FFFFFF" d="M571.887,395.697c-0.531,0-0.531-3.72-1.063-7.44c0-3.721-0.53-8.504-1.063-10.099
		c-0.532-1.595-1.063-5.847-3.722-8.504c-2.657-2.657-6.378-2.657-6.378-3.188c0,0,0.531-1.063,2.126-1.063
		c1.596,0,3.722,0.531,5.848,1.595c4.252,2.657,5.313,7.973,5.847,10.099c0.531,2.126,0.531,6.909,0,10.63
		C572.948,391.977,571.887,395.697,571.887,395.697z"/>
</g>
<g>
	<path fill="#FFFFFF" d="M505.982,391.445c-0.531,0,0.531-3.72,0.531-7.972s-1.595-8.504-2.126-10.099s-2.657-5.315-6.909-6.378
		c-3.721-1.595-7.441-0.531-7.441-1.063c-0.53-0.531,3.189-2.657,8.505-1.594c2.125,0.531,4.783,1.594,6.377,3.188
		c1.596,1.595,2.658,3.189,3.189,4.252c1.063,2.126,2.126,7.441,1.595,11.693C508.639,388.256,506.513,391.977,505.982,391.445z"/>
</g>
<g>
	<path fill="#FFFFFF" d="M439.014,395.166c-0.532,0,0.531-3.721,1.063-7.44c0.531-3.721,1.063-7.973,1.063-10.099
		c0-1.595,0.532-5.847-1.063-8.504c-2.126-2.657-5.313-3.189-5.313-3.721c0-0.532,4.252-1.595,7.439,2.126
		c1.596,1.595,2.657,4.252,2.657,5.847c0.531,2.126,0,3.721,0,4.783c0,2.126-1.063,6.378-2.126,10.099
		C441.139,392.508,439.545,395.166,439.014,395.166z"/>
</g>
<g>
	<path fill="#FFFFFF" d="M387.457,406.327c-1.063-0.531,2.658-17.539,3.722-22.322c0.531-1.063,1.063-3.189,1.595-5.315
		s0.531-4.252-1.063-5.846c-1.063-1.595-3.188-2.126-4.783-2.126s-2.657,0.531-2.657,0c0,0,0.531-1.063,2.657-1.595
		c1.595-0.531,4.783-0.531,6.909,1.595s3.188,5.846,2.657,8.504c-0.531,2.657-1.063,4.252-1.063,5.314
		C393.836,389.319,388.522,406.327,387.457,406.327z"/>
</g>
<g>
	<path fill="#FFFFFF" d="M319.959,439.814c-0.532,0.53-3.722-3.189-5.848-9.035c-2.126-5.315-2.657-12.226-2.126-14.882
		c0-2.657,1.595-9.567,4.252-14.352c2.657-5.313,6.909-8.504,7.44-7.973c0.532,0.532-2.657,4.252-4.783,9.036
		c-2.126,4.782-2.657,10.63-3.188,13.287c0,2.656-0.532,8.504,1.063,13.817C317.832,435.031,320.49,439.283,319.959,439.814z"/>
</g>
<g>
	<path fill="#A4D8C4" d="M387.99,278.237c-0.532,0,0-2.657,0-5.315c0-2.657-1.595-5.315-2.126-6.378
		c-0.532-1.063-2.126-3.72-4.252-5.315c-2.126-1.594-4.252-2.657-4.252-3.189c0-0.531,2.657-0.531,5.846,1.063
		c2.658,1.595,5.315,4.252,5.848,5.847c0.531,1.594,1.595,4.783,1.063,7.972C390.115,276.111,388.522,278.237,387.99,278.237z"/>
</g>
<g>
	<path fill="#A4D8C4" d="M476.748,284.615c-0.53-0.531,1.063-2.657,1.063-5.315c0.531-2.657-0.531-5.315-1.063-6.909
		c-0.53-1.063-1.595-3.721-3.72-5.847c-2.127-2.126-4.252-2.657-4.252-3.189c0-0.531,3.188-0.531,5.846,1.063
		c3.189,1.595,5.315,4.784,5.848,6.378c0.53,1.595,1.063,5.315,0,8.504C479.406,283.021,477.281,285.146,476.748,284.615z"/>
</g>
<g>
	<path fill="#A4D8C4" d="M570.823,295.776c-0.531-0.532,1.596-3.189,1.596-6.91c0.53-3.72-0.531-7.441-1.063-9.035
		c-0.531-1.595-2.126-5.315-4.784-7.973c-2.657-2.657-5.846-3.72-5.846-4.252c0-0.531,3.72,0,7.439,2.126
		c3.721,2.126,6.379,6.378,6.91,8.504c1.063,2.126,1.594,6.91,0,11.162C574.013,293.65,571.356,296.308,570.823,295.776z"/>
</g>
<g>
	<path fill="#A4D8C4" d="M567.104,347.331c-0.532-0.531-0.532-1.594-0.532-2.657s-0.53-2.658-0.53-3.189
		c0-0.532,0-2.126-0.531-3.189s-1.063-2.126-0.531-2.658c0.531-0.531,1.594,0,3.188,1.595c1.063,1.063,2.127,3.189,2.127,3.72
		c0,1.063,0,2.658-0.531,4.252C568.698,346.8,567.635,347.331,567.104,347.331z"/>
</g>
<g>
	<path fill="#A4D8C4" d="M431.573,294.182c-0.531,0,0.531-3.72,1.063-7.441c0.532-3.72,1.063-7.972,1.063-9.567
		c0-1.594,1.063-5.846-0.53-9.035c-0.532-1.595-2.127-2.126-3.189-2.658c-1.063-0.531-2.126,0-2.126-0.531
		c0,0,0.531-1.063,2.126-1.063s3.721,0.531,5.314,2.657c1.595,1.595,2.127,4.252,2.127,6.378s0,3.721,0,4.252
		c0,2.126-1.063,6.378-2.127,10.099C433.698,291.524,432.104,294.713,431.573,294.182z"/>
</g>
<g>
	<path fill="#A4D8C4" d="M381.613,357.43c-0.532-0.532,0.531-2.658,0.531-4.784c0.531-2.657,0.531-5.315,0.531-6.378
		s0.53-3.72,0-6.378c0-2.657-0.531-4.783,0-4.783c0.53,0,2.126,1.594,2.657,4.252c1.063,2.657,1.063,5.846,1.063,6.909
		c0,1.595-0.531,4.252-2.126,6.91C383.739,355.835,382.144,357.961,381.613,357.43z"/>
</g>
<g>
	<path fill="#F37473" d="M343.345,521.927c0,11.693-9.567,21.261-21.26,21.261h-11.161c-11.693,0-21.26-9.566-21.26-21.261
		c0-11.691,9.565-21.26,21.26-21.26h11.691C333.778,500.667,343.345,510.234,343.345,521.927z"/>
	<path fill="#F37473" d="M578.796,521.927c0,11.693-9.566,21.261-21.261,21.261h-11.691c-11.693,0-21.26-9.566-21.26-21.261
		c0-11.691,9.565-21.26,21.26-21.26h11.691C569.23,500.667,578.796,510.234,578.796,521.927z"/>
</g>
<g>
	<path fill="#010101" d="M377.214,492.695v1.063C377.214,493.758,377.214,493.227,377.214,492.695L377.214,492.695z"/>
	<path fill="#010101" d="M377.214,494.289C377.214,494.289,377.214,494.82,377.214,494.289v-0.531
		C377.214,494.289,377.214,494.289,377.214,494.289z"/>
	<path fill="#010101" d="M502.646,492.695c-1.063-7.441-7.439-13.288-15.412-13.288h-94.606c-7.973,0-14.351,5.847-15.414,13.288
		c0,0.531,0,1.063,0,1.063v0.531v6.91c0,17.007,6.91,32.421,18.071,44.113c5.847-10.63,15.413-19.665,27.106-23.917
		c5.315-2.126,11.692-3.188,17.54-3.188c6.377,0,12.225,1.063,17.539,3.188c11.691,4.252,21.26,12.756,27.105,23.386
		c10.631-11.161,17.539-26.574,17.539-43.582L502.646,492.695L502.646,492.695z"/>
	<path fill="#F37473" d="M458.001,521.927h-35.61c-11.693,4.252-21.26,12.756-27.106,23.917
		c11.161,11.693,27.106,18.603,44.646,18.603c17.539,0,33.484-7.44,45.176-19.134C479.261,534.151,469.695,526.179,458.001,521.927z
		"/>
	<path fill="#F37473" d="M422.391,521.927h35.61c-5.314-2.126-11.693-3.188-17.539-3.188
		C434.083,518.738,428.238,519.801,422.391,521.927z"/>
</g>
</svg>
