<?xml version="1.0" encoding="utf-8"?>
<!-- Generator: Adobe Illustrator 16.0.3, SVG Export Plug-In . SVG Version: 6.00 Build 0)  -->
<!DOCTYPE svg PUBLIC "-//W3C//DTD SVG 1.1//EN" "http://www.w3.org/Graphics/SVG/1.1/DTD/svg11.dtd">
<svg version="1.1" id="Layer_1" xmlns="http://www.w3.org/2000/svg" xmlns:xlink="http://www.w3.org/1999/xlink" x="0px" y="0px"
	 width="552.754px" height="850.391px" viewBox="148.818 0 552.754 850.391" enable-background="new 148.818 0 552.754 850.391"
	 xml:space="preserve">
<rect x="148.818" fill="#F4DDBE" width="552.754" height="850.391"/>
<path opacity="0.15" fill="#5E5E5E" enable-background="new    " d="M586.769,465.589v-39.862V268.936V178.05
	c0-34.016-16.477-63.779-41.988-81.85c-17.008-12.224-37.736-19.134-60.059-19.134h-68.031
	c-56.338,0-102.047,44.646-102.047,100.984v90.886v156.791v44.114c-4.783,3.72-7.972,10.099-7.972,16.476
	c0,6.378,3.188,12.756,7.972,16.477v12.225c0,52.618,39.862,94.605,91.417,99.921l-4.783,139.251
	c0,29.764,23.917,53.682,53.681,53.682s53.681-23.918,53.681-53.682l-4.783-140.314c47.834-8.504,83.444-48.897,83.444-98.857
	v-7.973c9.035-2.657,15.413-10.63,15.413-20.729C602.182,476.219,595.804,468.246,586.769,465.589z"/>
<g>
	<path fill="#BC9268" d="M482.065,736.65c0,29.764-23.918,53.681-53.682,53.681s-53.681-23.917-53.681-53.681l10.63-315.176
		c0-29.764,13.287-53.681,42.52-53.681c29.764,0,42.52,23.917,42.52,53.681L482.065,736.65z"/>
	<polygon fill="#A57447" points="477.813,620.785 378.954,660.646 381.08,597.931 476.749,597.931 	"/>
	<g>
		<path fill="#F48161" d="M289.132,456.021v41.457c0,56.338,45.709,100.452,102.047,100.452h68.563
			c56.339,0,101.516-44.114,101.516-100.452v-89.291H397.026C365.136,430.51,328.463,446.986,289.132,456.021z"/>
		<path fill="#7BCAB0" d="M519.269,78.661c6.378,24.449,9.567,49.96,9.567,76.003c0,33.484-5.315,65.905-15.414,96.732h47.835
			v-90.885C561.257,126.496,544.781,96.732,519.269,78.661z"/>
		<path fill="#F9F8E5" d="M397.026,408.188h164.231V251.396h-47.835C492.695,315.176,451.238,369.92,397.026,408.188z"/>
		<path fill="#F58C75" d="M289.132,408.188v47.834c39.331-9.035,76.004-25.512,107.894-47.834H289.132z"/>
		<path fill="#8BCFB6" d="M391.179,58.996c-56.338,0-102.047,44.645-102.047,100.983v90.886h224.822
			c10.098-30.295,15.413-62.716,15.413-96.732c0-26.575-3.189-52.086-9.567-76.004c-17.008-12.224-37.735-19.133-60.059-19.133
			H391.179z"/>
		<path fill="#FFFFFF" d="M289.132,408.188h107.894c54.212-37.736,95.669-92.48,116.396-156.791h-224.29V408.188z"/>
	</g>
</g>
<g>
	<circle fill="#010101" cx="328.994" cy="404.999" r="20.197"/>
	<circle fill="#010101" cx="528.836" cy="404.999" r="20.197"/>
</g>
<g>
	<path fill="#F04E4D" d="M335.904,468.777c0,11.693-9.566,21.791-21.791,21.791H302.42c-11.693,0-21.792-9.566-21.792-21.791
		s9.567-21.791,21.792-21.791h11.692C326.337,446.986,335.904,456.553,335.904,468.777z"/>
	<path fill="#F04E4D" d="M576.67,468.777c0,11.693-9.566,21.791-21.791,21.791h-11.693c-11.692,0-21.791-9.566-21.791-21.791
		s9.567-21.791,21.791-21.791h11.693C567.104,446.986,576.67,456.553,576.67,468.777z"/>
</g>
<path fill="#010101" d="M365.667,439.546v1.063C365.667,440.608,365.667,440.077,365.667,439.546L365.667,439.546z"/>
<path fill="#010101" d="M365.667,441.14C365.667,441.14,365.667,441.671,365.667,441.14v-0.531
	C365.667,441.14,365.667,441.14,365.667,441.14z"/>
<path fill="#010101" d="M491.1,439.546c-1.063-7.441-7.44-13.288-15.413-13.288h-94.605c-7.973,0-14.351,5.847-15.414,13.288
	c0,0.531,0,1.063,0,1.063v0.531v6.91c0,17.007,6.91,32.421,18.071,44.113c5.847-10.63,15.413-19.665,27.106-23.917
	c5.314-2.126,11.692-3.188,17.539-3.188c6.378,0,12.225,1.063,17.539,3.188c11.692,4.252,21.26,12.756,27.106,23.386
	c10.63-11.161,17.539-26.574,17.539-43.582L491.1,439.546L491.1,439.546z"/>
<path fill="#F04E4D" d="M446.454,468.777h-35.609c-11.693,4.252-21.26,12.756-27.106,23.917
	c11.161,11.693,27.106,18.603,44.646,18.603s33.484-7.44,45.177-19.134C467.714,481.002,458.148,473.029,446.454,468.777z"/>
<path fill="#F04E4D" d="M410.845,468.777h35.609c-5.314-2.126-11.692-3.188-17.539-3.188
	C422.537,465.589,416.691,466.651,410.845,468.777z"/>
</svg>
