<?xml version="1.0" encoding="utf-8"?>
<!-- Generator: Adobe Illustrator 16.0.3, SVG Export Plug-In . SVG Version: 6.00 Build 0)  -->
<!DOCTYPE svg PUBLIC "-//W3C//DTD SVG 1.1//EN" "http://www.w3.org/Graphics/SVG/1.1/DTD/svg11.dtd">
<svg version="1.1" id="Layer_1" xmlns="http://www.w3.org/2000/svg" xmlns:xlink="http://www.w3.org/1999/xlink" x="0px" y="0px"
	 width="552.754px" height="850.391px" viewBox="148.818 0 552.754 850.391" enable-background="new 148.818 0 552.754 850.391"
	 xml:space="preserve">
<rect x="148.818" fill="#F4DDBE" width="552.754" height="850.391"/>
<path opacity="0.15" fill="#5E5E5E" enable-background="new    " d="M315.707,483.659v31.89c0,52.618,41.456,94.606,92.479,99.921
	v0.531h-0.531l-2.126,62.717h0.531l-2.657,77.066c0,29.764,23.917,53.681,53.681,53.681s53.681-23.917,53.681-53.681l-3.721-115.865
	l2.126-0.532l-0.531-22.854h-2.126v-1.595c47.303-8.504,82.382-48.897,82.382-98.858v-25.512
	c10.099-1.594,17.539-10.629,17.539-21.26c0-10.629-7.44-19.133-17.539-21.259v-26.044V261.495V178.05
	c0-20.728-5.847-39.862-15.945-55.275c-17.539-27.638-48.365-45.708-84.507-45.708h-69.095
	c-56.338,0-103.641,45.177-103.641,101.516v82.913v160.511v32.421c-3.721,3.721-5.847,9.036-5.847,14.882
	C309.861,474.624,311.987,479.939,315.707,483.659z"/>
<g>
	<path fill="#DFB673" d="M485.253,738.245c0,29.764-23.917,53.681-53.681,53.681s-53.681-23.917-53.681-53.681l10.63-315.708
		c0-29.763,13.287-53.681,42.52-53.681c29.764,0,42.52,23.917,42.52,53.681L485.253,738.245z"/>
	<polygon fill="#C89D67" points="483.127,621.316 380.549,661.179 382.144,598.462 482.596,598.462 	"/>
	<g>
		<path fill="#7BCAB0" d="M546.375,105.236c2.126,14.882,3.188,30.295,3.188,45.708c0,32.421-4.783,63.248-14.35,92.48h27.105
			v-82.913C562.852,140.314,557.005,121.181,546.375,105.236z"/>
		<path fill="#A6703D" d="M290.196,456.553v41.457c0,56.338,47.303,100.452,103.641,100.452h68.563
			c56.339,0,100.453-44.114,100.453-100.452v-93.543H418.285C380.549,430.51,337.498,448.581,290.196,456.553z"/>
		<path fill="#F9F8E5" d="M418.285,404.467h144.566V243.424h-27.106C515.548,309.33,473.561,365.668,418.285,404.467z"/>
		<path fill="#8ACC98" d="M462.399,59.527h-68.563c-56.338,0-103.641,45.177-103.641,101.515v82.913h245.55
			c9.035-29.232,14.351-60.59,14.351-92.48c0-15.413-1.063-30.827-3.189-45.708C528.836,77.598,498.009,59.527,462.399,59.527z"/>
		<path fill="#B8784A" d="M290.196,404.467v52.086c46.771-7.44,90.354-25.512,128.09-52.086H290.196z"/>
		<path fill="#FFFFFF" d="M290.196,404.467h128.09c55.275-38.799,97.263-95.137,117.46-161.042h-245.55V404.467z"/>
	</g>
</g>
<g>
	<circle fill="#010101" cx="332.183" cy="387.459" r="20.728"/>
	<circle fill="#010101" cx="532.556" cy="387.459" r="20.728"/>
</g>
<g>
	<path fill="#F37473" d="M339.093,451.238c0,11.693-9.567,21.791-21.792,21.791h-11.692c-11.692,0-21.791-9.566-21.791-21.791
		s9.566-21.791,21.791-21.791h11.692C329.526,429.979,339.093,439.545,339.093,451.238z"/>
	<path fill="#F37473" d="M580.391,451.238c0,11.693-9.567,21.791-21.791,21.791h-11.693c-11.692,0-21.791-9.566-21.791-21.791
		s9.566-21.791,21.791-21.791H558.6C570.823,429.979,580.391,439.545,580.391,451.238z"/>
</g>
<g>
	<path fill="#010101" d="M368.856,427.321v1.063C368.856,428.384,368.856,427.853,368.856,427.321L368.856,427.321z"/>
	<path fill="#010101" d="M368.856,428.915C368.856,428.915,368.856,429.446,368.856,428.915v-0.531
		C368.856,428.915,368.856,428.915,368.856,428.915z"/>
	<path fill="#010101" d="M494.288,427.321c-1.063-7.441-7.439-13.288-15.412-13.288H384.27c-7.973,0-14.351,5.847-15.414,13.288
		c0,0.531,0,1.063,0,1.063v0.531v6.91c0,17.007,6.91,32.421,18.071,44.113c5.847-10.63,15.413-19.665,27.106-23.917
		c5.314-2.126,11.692-3.188,17.54-3.188c6.377,0,12.225,1.063,17.539,3.188c11.691,4.252,21.26,12.756,27.105,23.386
		c10.631-11.161,17.539-26.574,17.539-43.582L494.288,427.321L494.288,427.321z"/>
	<path fill="#F37473" d="M449.644,456.553h-35.61c-11.693,4.252-21.26,12.756-27.106,23.917
		c11.161,11.693,27.106,18.603,44.646,18.603c17.539,0,33.484-7.44,45.176-19.134C470.904,468.777,461.337,460.805,449.644,456.553z
		"/>
	<path fill="#F37473" d="M414.034,456.553h35.61c-5.314-2.126-11.693-3.188-17.539-3.188
		C425.726,453.364,419.88,454.427,414.034,456.553z"/>
</g>
</svg>
