<?xml version="1.0" encoding="utf-8"?>
<!-- Generator: Adobe Illustrator 21.0.2, SVG Export Plug-In . SVG Version: 6.00 Build 0)  -->
<svg version="1.1" id="Layer_1" xmlns="http://www.w3.org/2000/svg" xmlns:xlink="http://www.w3.org/1999/xlink" x="0px" y="0px"
	 viewBox="0 0 104 160" style="enable-background:new 0 0 104 160;" xml:space="preserve">
<style type="text/css">
	.st0{fill:#F4DDBE;}
	.st1{opacity:0.15;fill:#5E5E5E;}
	.st2{fill:#DFB673;}
	.st3{fill:#C89D67;}
	.st4{fill:#7CC792;}
	.st5{fill:#8ACC98;}
	.st6{fill:#010101;}
	.st7{fill:#F37473;}
</style>
<rect x="0" class="st0" width="104" height="160"/>
<path class="st1" d="M56.6,14.4L56.6,14.4c-7.6,0-14.9,2-20.7,5.7l-9,8.6c-3.2,4.7-5.1,10.2-5.1,16.5v21.5v0.9v32.6v7.2
	c0,6.4,6.4,13,12.8,13h11.3L45.5,132l0,0l-0.3,10c0,5.7,4.6,10.3,10.3,10.3c5.7,0,10.3-4.6,10.3-10.3l-0.7-21.5h13.6
	c6.4,0,10.8-6.6,10.8-13V67.6v-1.8V45.2c0-6.2-1.6-11.7-4.4-16.3C79.3,19.8,68.9,14.4,56.6,14.4z"/>
<g>
	<g>
		<path class="st2" d="M61,138.8c0,5.7-4.6,10.3-10.3,10.3c-5.7,0-10.3-4.6-10.3-10.3l2.1-60.5c0-5.7,2.5-10.3,8.2-10.3
			c5.7,0,8.2,4.6,8.2,10.3L61,138.8z"/>
		<polygon class="st3" points="60.4,121.4 40.8,128.7 41.2,117.2 60.2,117.2 		"/>
		<g>
			<path class="st4" d="M80.3,25.7c1.3,4.8,2.1,9.9,2.1,15.2c0,31.3-25.4,56.7-56.7,56.7c-2.9,0-5.8-0.2-8.5-0.6v7.2
				c0,6.4,6.4,13,12.8,13h44c6.4,0,10.8-6.6,10.8-13V64.3v-1.8V42C84.7,35.8,83.1,30.3,80.3,25.7z"/>
			<path class="st5" d="M82.3,40.9c0-5.3-0.7-10.4-2.1-15.2c-5.6-9.1-16-14.5-28.4-14.5h-0.1c-7.6,0-14.8,2-20.7,5.7l-9,8.6
				C19,30.1,17.1,35.7,17.1,42v21.5v0.9V97c2.8,0.4,5.6,0.6,8.5,0.6C56.9,97.6,82.3,72.2,82.3,40.9z"/>
		</g>
	</g>
	<g>
		<g>
			<path class="st6" d="M29.3,85.7c0-2.1,1.7-3.8,3.8-3.8c2.1,0,3.8,1.7,3.8,3.8"/>
			<circle class="st6" cx="69.7" cy="83.6" r="3.8"/>
		</g>
		<g>
			<path class="st7" d="M34.3,95.3c0,2.2-1.8,4-4,4h-2.2c-2.2,0-4-1.8-4-4c0-2.2,1.8-4,4-4h2.2C32.6,91.3,34.3,93.1,34.3,95.3z"/>
			<path class="st7" d="M78.6,95.3c0,2.2-1.8,4-4,4h-2.2c-2.2,0-4-1.8-4-4c0-2.2,1.8-4,4-4h2.2C76.8,91.3,78.6,93.1,78.6,95.3z"/>
		</g>
		<g>
			<path class="st6" d="M39.7,89.9v0.2C39.7,90,39.7,90,39.7,89.9L39.7,89.9z"/>
			<path class="st6" d="M48.2,95.3h-5.6c-1.5,0-2.8-4.7-2.8-5v1.3c0,3.2,1.3,6.1,3.4,8.2C44.2,97.7,46,96.1,48.2,95.3z"/>
			<path class="st6" d="M63.1,89.9L63.1,89.9c0,0.1,0,0.2,0,0.3c0,0-1.3,5.1-2.9,5.1h-5.5c2.2,0.8,3.9,2.4,5,4.3
				c2-2.1,3.3-5,3.3-8.1V89.9z"/>
			<path class="st6" d="M39.7,90.2C39.7,90.2,39.7,90.2,39.7,90.2l0-0.1C39.7,90.2,39.7,90.2,39.7,90.2z"/>
			<path class="st6" d="M60.2,87.4H42.6c-1.5,0-2.7,1.1-2.8,2.5h23.3C62.9,88.5,61.7,87.4,60.2,87.4z"/>
			<path class="st6" d="M42.6,95.3h5.6c1-0.4,2.1-0.6,3.3-0.6c1.2,0,2.3,0.2,3.3,0.6h5.5c1.6,0,2.9-5.1,2.9-5.1c0-0.1,0-0.2,0-0.3
				H39.7c0,0.1,0,0.2,0,0.2v0.1C39.8,90.6,41.1,95.3,42.6,95.3z"/>
			<path class="st7" d="M54.8,95.3h-6.6c-2.2,0.8-4,2.4-5.1,4.4c2.1,2.1,5.1,3.5,8.3,3.5c3.3,0,6.3-1.4,8.4-3.6
				C58.7,97.6,56.9,96.1,54.8,95.3z"/>
			<path class="st7" d="M48.2,95.3h6.6c-1-0.4-2.1-0.6-3.3-0.6C50.3,94.7,49.2,94.9,48.2,95.3z"/>
		</g>
	</g>
</g>
</svg>
