<?xml version="1.0" encoding="utf-8"?>
<!-- Generator: Adobe Illustrator 21.0.2, SVG Export Plug-In . SVG Version: 6.00 Build 0)  -->
<svg version="1.1" id="Layer_1" xmlns="http://www.w3.org/2000/svg" xmlns:xlink="http://www.w3.org/1999/xlink" x="0px" y="0px"
	 viewBox="0 0 104 160" style="enable-background:new 0 0 104 160;" xml:space="preserve">
<style type="text/css">
	.st0{fill:#F4DDBE;}
	.st1{opacity:0.15;fill:#5E5E5E;}
	.st2{fill:#BC9268;}
	.st3{fill:#A57447;}
	.st4{fill:#F48161;}
	.st5{fill:#7BCAB0;}
	.st6{fill:#F9F8E5;}
	.st7{fill:#F58C75;}
	.st8{fill:#8BCFB6;}
	.st9{fill:#FFFFFF;}
	.st10{fill:#010101;}
	.st11{fill:#F04E4D;}
	.st12{fill:#F37473;}
</style>
<rect x="0" class="st0" width="104" height="160"/>
<path class="st1" d="M82.4,87.6v-7.5V50.6V33.5c0-6.4-3.1-12-7.9-15.4c-3.2-2.3-7.1-3.6-11.3-3.6H50.4c-10.6,0-19.2,8.4-19.2,19
	v17.1v29.5v8.3c-0.9,0.7-1.5,1.9-1.5,3.1s0.6,2.4,1.5,3.1v2.3c0,9.9,7.5,17.8,17.2,18.8l-0.9,26.2c0,5.6,4.5,10.1,10.1,10.1
	c5.6,0,10.1-4.5,10.1-10.1l-0.9-26.4c9-1.6,15.7-9.2,15.7-18.6v-1.5c1.7-0.5,2.9-2,2.9-3.9C85.3,89.6,84.1,88.1,82.4,87.6z"/>
<g>
	<g>
		<path class="st2" d="M62.7,138.6c0,5.6-4.5,10.1-10.1,10.1c-5.6,0-10.1-4.5-10.1-10.1l2-59.3c0-5.6,2.5-10.1,8-10.1
			c5.6,0,8,4.5,8,10.1L62.7,138.6z"/>
		<polygon class="st3" points="61.9,116.8 43.3,124.3 43.7,112.5 61.7,112.5 		"/>
		<g>
			<path class="st4" d="M26.4,85.8v7.8c0,10.6,8.6,18.9,19.2,18.9h12.9c10.6,0,19.1-8.3,19.1-18.9V76.8H46.7
				C40.7,81,33.8,84.1,26.4,85.8z"/>
			<path class="st5" d="M69.7,14.8c1.2,4.6,1.8,9.4,1.8,14.3c0,6.3-1,12.4-2.9,18.2h9V30.2C77.6,23.8,74.5,18.2,69.7,14.8z"/>
			<path class="st6" d="M46.7,76.8h30.9V47.3h-9C64.7,59.3,56.9,69.6,46.7,76.8z"/>
			<path class="st7" d="M26.4,76.8v9c7.4-1.7,14.3-4.8,20.3-9H26.4z"/>
			<path class="st8" d="M45.6,11.1c-10.6,0-19.2,8.4-19.2,19v17.1h42.3c1.9-5.7,2.9-11.8,2.9-18.2c0-5-0.6-9.8-1.8-14.3
				c-3.2-2.3-7.1-3.6-11.3-3.6H45.6z"/>
			<path class="st9" d="M26.4,76.8h20.3c10.2-7.1,18-17.4,21.9-29.5H26.4V76.8z"/>
		</g>
	</g>
	<g>
		<g>
			<circle class="st10" cx="33.9" cy="76.2" r="3.8"/>
			<circle class="st10" cx="71.5" cy="76.2" r="3.8"/>
		</g>
		<g>
			<path class="st11" d="M35.2,88.2c0,2.2-1.8,4.1-4.1,4.1h-2.2c-2.2,0-4.1-1.8-4.1-4.1s1.8-4.1,4.1-4.1h2.2
				C33.4,84.1,35.2,85.9,35.2,88.2z"/>
			<path class="st11" d="M80.5,88.2c0,2.2-1.8,4.1-4.1,4.1h-2.2c-2.2,0-4.1-1.8-4.1-4.1s1.8-4.1,4.1-4.1h2.2
				C78.7,84.1,80.5,85.9,80.5,88.2z"/>
		</g>
		<g>
			<path class="st10" d="M40.7,82.6v0.2C40.7,82.8,40.7,82.7,40.7,82.6L40.7,82.6z"/>
			<path class="st10" d="M49.4,88.2h-5.7c-1.6,0-2.8-4.8-2.9-5.2v1.3c0,3.3,1.3,6.3,3.5,8.4C45.3,90.6,47.2,89,49.4,88.2z"/>
			<path class="st10" d="M64.7,82.6L64.7,82.6c0,0.1,0,0.2,0,0.3c0,0-1.3,5.2-2.9,5.2h-5.6c2.2,0.8,4,2.4,5.2,4.5
				c2.1-2.2,3.4-5.1,3.4-8.3V82.6z"/>
			<path class="st10" d="M40.7,83C40.7,83,40.7,83,40.7,83l0-0.1C40.7,82.9,40.7,83,40.7,83z"/>
			<path class="st10" d="M61.8,80.1H43.7c-1.5,0-2.7,1.1-2.9,2.6h23.9C64.5,81.2,63.3,80.1,61.8,80.1z"/>
			<path class="st10" d="M43.7,88.2h5.7c1.1-0.4,2.2-0.6,3.4-0.6c1.2,0,2.3,0.2,3.4,0.6h5.6c1.6,0,2.9-5.2,2.9-5.2
				c0-0.1,0-0.2,0-0.3H40.8c0,0.1,0,0.2,0,0.2V83C40.8,83.4,42.1,88.2,43.7,88.2z"/>
			<path class="st11" d="M56.2,88.2h-6.8c-2.2,0.8-4.1,2.5-5.2,4.5c2.2,2.2,5.2,3.6,8.5,3.6c3.4,0,6.4-1.4,8.6-3.7
				C60.2,90.6,58.4,89,56.2,88.2z"/>
			<path class="st12" d="M49.4,88.2h6.8c-1.1-0.4-2.2-0.6-3.4-0.6C51.6,87.6,50.5,87.8,49.4,88.2z"/>
		</g>
	</g>
</g>
</svg>
