<?xml version="1.0" encoding="utf-8"?>
<!-- Generator: Adobe Illustrator 16.0.3, SVG Export Plug-In . SVG Version: 6.00 Build 0)  -->
<!DOCTYPE svg PUBLIC "-//W3C//DTD SVG 1.1//EN" "http://www.w3.org/Graphics/SVG/1.1/DTD/svg11.dtd">
<svg version="1.1" id="Layer_1" xmlns="http://www.w3.org/2000/svg" xmlns:xlink="http://www.w3.org/1999/xlink" x="0px" y="0px"
	 width="552.754px" height="850.391px" viewBox="148.818 0 552.754 850.391" enable-background="new 148.818 0 552.754 850.391"
	 xml:space="preserve">
<rect x="148.818" fill="#F4DDBE" width="552.754" height="850.391"/>
<path opacity="0.15" fill="#5E5E5E" enable-background="new    " d="M449.643,76.535L449.643,76.535
	c-40.393,0-79.192,10.63-110.019,30.295l-47.834,45.708c-17.008,24.98-27.106,54.212-27.106,87.697v114.271v4.784v173.267v38.268
	c0,34.016,34.016,69.095,68.031,69.095h60.059l-2.126,61.653l0,0l-1.595,53.149c0,30.295,24.449,54.743,54.744,54.743
	s54.744-24.448,54.744-54.743l-3.721-114.271h72.283c34.016,0,57.401-35.079,57.401-69.095V359.29v-9.567V240.235
	c0-32.953-8.504-62.185-23.386-86.634C570.292,105.236,515.017,76.535,449.643,76.535z"/>
<g>
	<path fill="#DFB673" d="M473.03,737.714c0,30.295-24.449,54.743-54.744,54.743s-54.744-24.448-54.744-54.743l11.161-321.554
		c0-30.295,13.288-54.744,43.583-54.744s43.582,24.449,43.582,54.744L473.03,737.714z"/>
	<polygon fill="#C89D67" points="469.84,645.233 365.667,684.032 367.793,622.911 468.778,622.911 	"/>
	<g>
		<path fill="#7CC792" d="M575.608,136.594c6.909,25.512,11.161,52.618,11.161,80.787c0,166.358-134.999,301.357-301.356,301.357
			c-15.414,0-30.827-1.063-45.178-3.189v38.268c0,34.016,34.016,69.095,68.031,69.095h233.857c34.016,0,57.401-35.079,57.401-69.095
			V341.75v-9.567V223.228C598.993,190.275,590.49,161.042,575.608,136.594z"/>
		<path fill="#8ACC98" d="M586.238,217.381c0-28.169-3.721-55.275-11.162-80.787c-29.763-48.366-85.038-77.066-150.944-77.066H423.6
			c-40.394,0-78.661,10.63-110.019,30.295l-47.835,45.708c-15.944,24.449-26.043,54.212-26.043,87.697v114.271v4.784v173.267
			c14.882,2.126,29.764,3.189,45.177,3.189C451.238,518.738,586.238,383.739,586.238,217.381z"/>
	</g>
</g>
<g>
	<path fill="#010101" d="M304.546,455.49c0-11.161,9.035-20.197,20.196-20.197s20.196,9.036,20.196,20.197"/>
	<circle fill="#010101" cx="519.269" cy="444.329" r="20.197"/>
</g>
<g>
	<path fill="#F37473" d="M331.12,506.514c0,11.692-9.567,21.26-21.26,21.26h-11.692c-11.693,0-21.26-9.567-21.26-21.26
		c0-11.693,9.566-21.26,21.26-21.26h11.692C322.085,485.254,331.12,494.82,331.12,506.514z"/>
	<path fill="#F37473" d="M566.572,506.514c0,11.692-9.566,21.26-21.26,21.26h-11.692c-11.693,0-21.26-9.567-21.26-21.26
		c0-11.693,9.566-21.26,21.26-21.26h11.692C557.005,485.254,566.572,494.82,566.572,506.514z"/>
</g>
<g>
	<path fill="#010101" d="M362.478,477.282v1.063C362.478,478.345,362.478,477.813,362.478,477.282L362.478,477.282z"/>
	<path fill="#010101" d="M362.478,478.876C362.478,478.876,362.478,479.407,362.478,478.876v-0.531
		C362.478,478.876,362.478,478.876,362.478,478.876z"/>
	<path fill="#010101" d="M487.911,477.282c-1.063-7.441-7.441-13.288-15.414-13.288h-94.605c-7.973,0-14.351,5.847-15.414,13.288
		c0,0.531,0,1.063,0,1.063v0.531v6.91c0,17.007,6.91,32.421,18.071,44.113c5.847-10.63,15.413-19.665,27.106-23.917
		c5.314-2.126,11.692-3.188,17.539-3.188c6.378,0,12.224,1.063,17.539,3.188c11.693,4.252,21.26,12.756,27.107,23.386
		c10.629-11.161,17.539-26.574,17.539-43.582L487.911,477.282L487.911,477.282z"/>
	<path fill="#F37473" d="M443.265,506.514h-35.609c-11.693,4.252-21.26,12.756-27.106,23.917
		c11.161,11.693,27.106,18.603,44.646,18.603c17.539,0,33.484-7.44,45.177-19.134C464.525,518.738,454.958,510.766,443.265,506.514z
		"/>
	<path fill="#F37473" d="M407.656,506.514h35.609c-5.314-2.126-11.691-3.188-17.539-3.188
		C419.348,503.325,413.502,504.388,407.656,506.514z"/>
</g>
</svg>
