<?xml version="1.0" encoding="utf-8"?>
<!-- Generator: Adobe Illustrator 21.0.2, SVG Export Plug-In . SVG Version: 6.00 Build 0)  -->
<svg version="1.1" id="Layer_1" xmlns="http://www.w3.org/2000/svg" xmlns:xlink="http://www.w3.org/1999/xlink" x="0px" y="0px"
	 viewBox="0 0 104 160" style="enable-background:new 0 0 104 160;" xml:space="preserve">
<style type="text/css">
	.st0{fill:#F4DDBE;}
	.st1{opacity:0.15;fill:#5E5E5E;}
	.st2{fill:#DFB673;}
	.st3{fill:#C89D67;}
	.st4{fill:#7BCAB0;}
	.st5{fill:#A6703D;}
	.st6{fill:#F9F8E5;}
	.st7{fill:#8ACC98;}
	.st8{fill:#B8784A;}
	.st9{fill:#FFFFFF;}
	.st10{fill:#010101;}
	.st11{fill:#F37473;}
</style>
<rect x="0" class="st0" width="104" height="160"/>
<path class="st1" d="M31.4,91v6c0,9.9,7.8,17.8,17.4,18.8l0,0.1h-0.1l-0.4,11.8l0.1,0l-0.5,14.5c0,5.6,4.5,10.1,10.1,10.1
	c5.6,0,10.1-4.5,10.1-10.1l-0.7-21.8l0.4-0.1l-0.1-4.3h-0.4l0-0.3c8.9-1.6,15.5-9.2,15.5-18.6v-4.8c1.9-0.3,3.3-2,3.3-4
	c0-2-1.4-3.6-3.3-4v-4.9V49.2V33.5c0-3.9-1.1-7.5-3-10.4c-3.3-5.2-9.1-8.6-15.9-8.6H50.9c-10.6,0-19.5,8.5-19.5,19.1v15.6v30.2v6.1
	c-0.7,0.7-1.1,1.7-1.1,2.8C30.3,89.3,30.7,90.3,31.4,91z"/>
<g>
	<g>
		<path class="st2" d="M63.3,138.9c0,5.6-4.5,10.1-10.1,10.1c-5.6,0-10.1-4.5-10.1-10.1l2-59.4c0-5.6,2.5-10.1,8-10.1
			c5.6,0,8,4.5,8,10.1L63.3,138.9z"/>
		<polygon class="st3" points="62.9,116.9 43.6,124.4 43.9,112.6 62.8,112.6 		"/>
		<g>
			<path class="st4" d="M74.8,19.8c0.4,2.8,0.6,5.7,0.6,8.6c0,6.1-0.9,11.9-2.7,17.4h5.1V30.2C77.9,26.4,76.8,22.8,74.8,19.8z"/>
			<path class="st5" d="M26.6,85.9v7.8c0,10.6,8.9,18.9,19.5,18.9H59c10.6,0,18.9-8.3,18.9-18.9V76.1H50.7
				C43.6,81,35.5,84.4,26.6,85.9z"/>
			<path class="st6" d="M50.7,76.1h27.2V45.8h-5.1C69,58.2,61.1,68.8,50.7,76.1z"/>
			<path class="st7" d="M59,11.2H46.1c-10.6,0-19.5,8.5-19.5,19.1v15.6h46.2c1.7-5.5,2.7-11.4,2.7-17.4c0-2.9-0.2-5.8-0.6-8.6
				C71.5,14.6,65.7,11.2,59,11.2z"/>
			<path class="st8" d="M26.6,76.1v9.8c8.8-1.4,17-4.8,24.1-9.8H26.6z"/>
			<path class="st9" d="M26.6,76.1h24.1C61.1,68.8,69,58.2,72.8,45.8H26.6V76.1z"/>
		</g>
	</g>
	<g>
		<g>
			<circle class="st10" cx="34.5" cy="72.9" r="3.9"/>
			<circle class="st10" cx="72.2" cy="72.9" r="3.9"/>
		</g>
		<g>
			<path class="st11" d="M35.8,84.9c0,2.2-1.8,4.1-4.1,4.1h-2.2c-2.2,0-4.1-1.8-4.1-4.1s1.8-4.1,4.1-4.1h2.2
				C34,80.9,35.8,82.7,35.8,84.9z"/>
			<path class="st11" d="M81.2,84.9c0,2.2-1.8,4.1-4.1,4.1h-2.2c-2.2,0-4.1-1.8-4.1-4.1s1.8-4.1,4.1-4.1h2.2
				C79.4,80.9,81.2,82.7,81.2,84.9z"/>
		</g>
		<g>
			<path class="st10" d="M41.4,79.4v0.2C41.4,79.6,41.4,79.5,41.4,79.4L41.4,79.4z"/>
			<path class="st10" d="M50,84.9h-5.7c-1.6,0-2.8-4.8-2.9-5.2v1.3c0,3.3,1.3,6.3,3.5,8.4C45.9,87.4,47.8,85.8,50,84.9z"/>
			<path class="st10" d="M65.3,79.4L65.3,79.4c0,0.1,0,0.2,0,0.3c0,0-1.3,5.2-2.9,5.2h-5.6c2.2,0.8,4,2.4,5.2,4.5
				c2.1-2.2,3.4-5.1,3.4-8.3V79.4z"/>
			<path class="st10" d="M41.4,79.8C41.4,79.8,41.4,79.8,41.4,79.8l0-0.1C41.4,79.7,41.4,79.7,41.4,79.8z"/>
			<path class="st10" d="M62.4,76.8H44.3c-1.5,0-2.7,1.1-2.9,2.6h23.9C65.1,78,63.9,76.8,62.4,76.8z"/>
			<path class="st10" d="M44.3,84.9H50c1.1-0.4,2.2-0.6,3.4-0.6c1.2,0,2.3,0.2,3.4,0.6h5.6c1.6,0,2.9-5.2,2.9-5.2c0-0.1,0-0.2,0-0.3
				H41.4c0,0.1,0,0.2,0,0.2v0.1C41.5,80.1,42.7,84.9,44.3,84.9z"/>
			<path class="st11" d="M56.8,84.9H50c-2.2,0.8-4.1,2.5-5.2,4.5c2.2,2.2,5.2,3.6,8.5,3.6c3.4,0,6.4-1.4,8.6-3.7
				C60.9,87.4,59,85.8,56.8,84.9z"/>
			<path class="st11" d="M50,84.9h6.8c-1.1-0.4-2.2-0.6-3.4-0.6C52.2,84.3,51.1,84.6,50,84.9z"/>
		</g>
	</g>
</g>
</svg>
