<?xml version="1.0" encoding="utf-8"?>
<!-- Generator: Adobe Illustrator 16.0.3, SVG Export Plug-In . SVG Version: 6.00 Build 0)  -->
<!DOCTYPE svg PUBLIC "-//W3C//DTD SVG 1.1//EN" "http://www.w3.org/Graphics/SVG/1.1/DTD/svg11.dtd">
<svg version="1.1" id="Capa_1" xmlns="http://www.w3.org/2000/svg" xmlns:xlink="http://www.w3.org/1999/xlink" x="0px" y="0px"
	 width="174.325px" height="160.811px" viewBox="0 0 174.325 160.811" enable-background="new 0 0 174.325 160.811"
	 xml:space="preserve">
<g>
	<path fill="#8AC9B4" d="M89.287,43.731c-4.252,1.063-7.973,3.189-10.099,5.849c-2.657,2.656-3.721,5.847-3.721,9.034
		c0,3.188,1.063,5.848,3.721,7.974c2.126,2.126,5.847,3.188,10.099,3.188s11.161-1.063,20.729-3.188
		c9.564-2.126,15.943-3.189,19.134-3.189c3.188,0,4.783,2.126,4.783,6.378c0,4.253-0.531,7.975-2.126,11.694
		c-2.126-0.532-4.783-0.532-6.909-0.532c-2.658,0-5.315,0.532-8.504,1.063c0,7.973-1.063,15.414-3.721,22.324
		c-2.657,6.377-5.849,11.689-10.101,15.41c-8.504,7.975-18.603,11.693-30.295,11.693c-8.504,0-15.413-2.127-19.665-6.379
		c-4.783-4.252-6.91-9.566-6.91-15.412c0-5.848,1.597-11.693,4.784-17.008c3.188-5.314,7.972-9.566,13.818-13.288
		c-3.722-2.126-6.378-5.315-8.504-8.504c-2.126-3.721-2.657-6.909-2.657-11.161c0-7.973,3.721-14.882,11.691-21.26
		c7.44-6.378,18.07-9.036,30.826-9.036c6.378,0,11.693,1.063,15.945,3.721c3.72,2.657,5.846,5.847,5.846,9.567
		c0,3.72-1.063,6.909-3.721,8.504c-2.657,2.126-5.314,3.188-8.504,3.188c-3.188,0-5.847-1.063-8.504-2.655
		C92.477,49.047,90.352,46.389,89.287,43.731z M80.784,106.98c4.783,0,9.035-2.127,13.819-6.379
		c4.783-4.252,7.44-10.629,8.503-18.602c-8.503,1.063-14.35,1.594-18.07,1.594c-3.72,0-5.847,0-7.973-0.531
		c-4.783,4.783-6.909,10.1-6.909,14.883c0,3.188,1.063,5.314,2.657,6.908C75.469,106.449,78.127,106.98,80.784,106.98z"/>
	<path fill="#6D6E71" d="M70.686,86.783V62.865l-9.035,17.539H57.93l-9.035-17.539v23.386h-6.909V50.641h7.44l10.63,20.197
		l10.63-20.197h6.91v35.611h-6.91V86.783z"/>
	<path fill="#6D6E71" d="M85.035,86.783v-35.61h6.909v35.61H85.035z"/>
	<path fill="#6D6E71" d="M103.108,51.173l9.035,13.287l9.035-13.287h7.439l-12.756,18.07l12.225,17.54h-7.439l-8.504-12.758
		l-8.504,12.758h-7.441l12.227-17.54l-12.758-18.07H103.108z"/>
	<path fill="#6D6E71" d="M55.804,112.294V100.07l-4.783,9.033h-2.126l-4.783-9.033v12.225h-3.721V93.691h3.721l5.314,10.631
		l5.313-10.631h3.722v18.604H55.804z"/>
	<path fill="#6D6E71" d="M68.56,93.693h3.188l6.909,18.604h-3.721l-1.594-4.783h-6.379l-1.596,4.783h-3.721L68.56,93.693z
		 M72.812,105.384l-2.657-7.439l-2.657,7.439H72.812z"/>
	<path fill="#6D6E71" d="M93.009,96.88h-5.849v15.414H83.44V96.88h-5.846v-3.188h15.413L93.009,96.88L93.009,96.88z"/>
	<path fill="#6D6E71" d="M93.539,103.259c0-1.064,0-2.127,0.531-3.189c0.532-1.063,1.063-2.125,1.595-3.188
		c0.532-1.063,1.597-1.594,2.657-2.125c1.063-0.531,2.657-1.064,3.722-1.064c1.596,0,3.188,0.531,4.253,1.064
		c1.063,0.531,2.126,1.594,2.655,3.189l-2.655,2.125c0-0.531-0.531-1.064-1.063-1.596c-0.531-0.529-0.531-0.529-1.063-1.063
		c-0.531,0-1.063-0.531-1.063-0.531h-1.063c-1.063,0-1.597,0-2.126,0.531c-0.531,0.531-1.063,1.063-1.597,1.594
		c-0.53,0.533-0.53,1.064-1.063,2.127c0,0.531-0.532,1.594-0.532,2.125c0,1.064,0,1.596,0.532,2.127
		c0.53,0.531,0.53,1.594,1.063,2.125s1.063,1.064,1.597,1.596c0.529,0.531,1.595,0.531,2.126,0.531c0.529,0,1.063,0,1.063,0
		c0.532,0,1.063-0.531,1.063-0.531c0.529,0,0.529-0.531,1.063-1.063c0.532-0.531,0.532-1.064,1.063-1.064l3.188,1.598
		c-0.531,0.529-0.531,1.063-1.063,1.594c-0.532,0.531-1.063,1.063-2.126,1.594c-0.531,0.531-1.597,0.531-2.127,1.064
		c-0.53,0-1.596,0.529-2.125,0.529c-1.597,0-2.657-0.529-3.723-1.063c-1.063-0.531-2.126-1.064-2.657-2.127
		c-1.063-1.063-1.595-2.125-2.126-3.188C93.539,105.384,93.539,104.322,93.539,103.259z"/>
	<path fill="#6D6E71" d="M128.617,93.693v18.604h-3.72v-7.973h-8.504v7.973h-3.721V93.693h3.721v7.439h8.504v-7.439H128.617
		L128.617,93.693z"/>
	<path fill="#FFFFFF" d="M72.281,84.125V60.739l-9.035,17.538h-3.721L50.49,60.739v23.385h-6.909v-35.61h7.44l10.63,20.197
		l10.63-20.197h7.44v35.61H72.281z"/>
	<path fill="#FFFFFF" d="M86.631,84.125v-35.61h6.907v35.61H86.631z"/>
	<path fill="#FFFFFF" d="M104.701,49.047l9.035,13.287l9.036-13.287h7.439l-12.757,18.07l12.227,17.539h-7.441l-8.504-12.757
		l-8.504,12.757h-7.44l12.227-17.539l-12.756-18.07H104.701z"/>
	<path fill="#FFFFFF" d="M57.399,110.167V97.943l-4.783,9.035H50.49l-4.784-9.035v12.225h-3.72V91.564h3.72l5.315,10.631
		l5.315-10.631h3.72v18.604H57.399z"/>
	<path fill="#FFFFFF" d="M70.155,91.566h3.189l6.908,18.604h-3.722l-1.595-4.783h-6.378l-1.595,4.783h-3.722L70.155,91.566z
		 M74.407,103.259l-2.657-7.441l-2.655,7.441H74.407z"/>
	<path fill="#FFFFFF" d="M94.604,94.755h-5.847v15.412h-3.723V94.755h-5.847v-3.189h15.414L94.604,94.755L94.604,94.755z"/>
	<path fill="#FFFFFF" d="M95.135,100.601c0-1.063,0-2.125,0.529-3.188c0.531-1.063,1.063-2.125,1.597-3.188
		c0.529-1.063,1.594-1.596,2.657-2.127c1.063-0.531,2.655-1.063,3.721-1.063c1.594,0,3.188,0.531,4.252,1.063
		c1.063,0.531,2.126,1.596,2.657,3.189l-2.657,2.125c0-0.531-0.531-1.063-1.063-1.596c-0.529-0.529-0.529-0.529-1.063-1.063
		c-0.532,0-1.063-0.531-1.063-0.531h-1.063c-1.063,0-1.595,0-2.126,0.531c-0.532,0.531-1.063,1.063-1.595,1.596
		c-0.532,0.531-0.531,1.063-1.063,2.125c0,0.531-0.531,1.596-0.531,2.127c0,1.063,0,1.594,0.531,2.125
		c0.532,0.531,0.532,1.596,1.063,2.127c0.529,0.531,1.063,1.063,1.595,1.594c0.531,0.531,1.594,0.531,2.126,0.531
		c0.531,0,1.063,0,1.063,0c0.531,0,1.063-0.531,1.063-0.531c0.531,0,0.531-0.529,1.063-1.063c0.532-0.531,0.531-1.063,1.063-1.063
		l3.188,1.596c-0.529,0.529-0.529,1.063-1.063,1.594c-0.532,0.531-1.063,1.063-2.126,1.596c-0.532,0.531-1.595,0.531-2.126,1.063
		c-0.532,0-1.596,0.531-2.126,0.531c-1.595,0-2.658-0.531-3.722-1.063s-2.127-1.064-2.656-2.127
		c-1.063-1.063-1.597-2.125-2.126-3.188C95.135,103.259,95.135,102.195,95.135,100.601z"/>
	<path fill="#FFFFFF" d="M130.213,91.566v18.604h-3.723v-7.971h-8.504v7.971h-3.72V91.566h3.72v7.441h8.504v-7.441H130.213
		L130.213,91.566z"/>
</g>
</svg>
