<?xml version="1.0" encoding="utf-8"?>
<!-- Generator: Adobe Illustrator 16.0.3, SVG Export Plug-In . SVG Version: 6.00 Build 0)  -->
<!DOCTYPE svg PUBLIC "-//W3C//DTD SVG 1.1//EN" "http://www.w3.org/Graphics/SVG/1.1/DTD/svg11.dtd">
<svg version="1.1" id="Layer_1" xmlns="http://www.w3.org/2000/svg" xmlns:xlink="http://www.w3.org/1999/xlink" x="0px" y="0px"
	 width="552.754px" height="850.391px" viewBox="148.818 0 552.754 850.391" enable-background="new 148.818 0 552.754 850.391"
	 xml:space="preserve">
<rect x="148.818" fill="#F4DDBE" width="552.754" height="850.391"/>
<path opacity="0.15" fill="#5E5E5E" enable-background="new    " d="M603.777,292.322l-14.351-129.685
	c-5.314-49.429-49.96-86.102-99.39-86.102h-83.444c-49.429,0-94.605,37.205-99.389,86.633l-31.358,276.909l-6.909,61.653
	l-2.657,23.386l-3.721,32.952c-5.315,49.429,31.358,91.417,80.787,91.417h55.807l-2.126,61.122h0.531l-1.595,46.24
	c0,28.7,23.386,52.086,52.087,52.086c28.7,0,52.086-23.386,52.086-52.086l-3.721-107.362h56.339
	c49.429,0,86.102-41.456,80.787-90.886L603.777,292.322z"/>
<g>
	<path fill="#BC9268" d="M477.281,739.84c0,28.7-23.387,52.086-52.087,52.086s-52.086-23.386-52.086-52.086l10.63-307.204
		c0-28.7,12.756-52.086,41.456-52.086s41.456,23.386,41.456,52.086L477.281,739.84z"/>
	<polygon fill="#A57447" points="474.092,654.801 374.171,693.6 376.297,632.478 473.561,632.478 	"/>
	<g>
		<path fill="#F8AC5A" d="M610.686,541.592l-29.764-266.278c-34.016,135-155.728,234.92-301.356,234.92
			c-12.225,0-24.449-0.532-36.142-2.126l-3.721,32.952c-5.314,49.429,31.358,91.417,80.787,91.417h209.408
			C579.86,632.478,616.001,591.021,610.686,541.592z"/>
		<path fill="#FBB56E" d="M580.922,275.314l-14.351-129.685c-5.314-49.429-49.96-86.102-99.389-86.102h-83.444
			c-49.43,0-94.606,37.205-99.39,86.633L252.99,423.069l-6.909,61.653l-2.657,23.386c11.692,1.594,23.917,2.126,36.142,2.126
			C425.195,510.234,546.906,410.313,580.922,275.314z"/>
	</g>
</g>
<g>
	<path fill="#010101" d="M309.329,448.05c0-11.162,9.035-20.197,20.196-20.197s20.197,9.035,20.197,20.197"/>
	<circle fill="#010101" cx="524.052" cy="436.356" r="20.196"/>
</g>
<g>
	<path fill="#F37473" d="M335.904,498.541c0,11.693-9.566,21.26-21.26,21.26h-11.692c-11.693,0-21.26-9.566-21.26-21.26
		c0-11.692,9.566-21.26,21.26-21.26h11.692C326.337,477.813,335.904,487.38,335.904,498.541z"/>
	<path fill="#F37473" d="M570.823,498.541c0,11.693-9.566,21.26-21.26,21.26h-11.692c-11.693,0-21.26-9.566-21.26-21.26
		c0-11.692,9.566-21.26,21.26-21.26h11.692C561.788,477.813,570.823,487.38,570.823,498.541z"/>
</g>
<g>
	<path fill="#010101" d="M362.481,469.31v1.063C362.481,470.372,362.481,469.841,362.481,469.31L362.481,469.31z"/>
	<path fill="#010101" d="M362.481,470.903C362.481,470.903,362.481,471.435,362.481,470.903v-0.531
		C362.481,470.903,362.481,470.903,362.481,470.903z"/>
	<path fill="#010101" d="M487.914,469.31c-1.063-7.441-7.441-13.288-15.414-13.288h-94.605c-7.973,0-14.351,5.847-15.414,13.288
		c0,0.531,0,1.063,0,1.063v0.531v6.91c0,17.007,6.91,32.421,18.071,44.113c5.847-10.63,15.413-19.665,27.106-23.917
		c5.314-2.126,11.693-3.188,17.539-3.188c6.379,0,12.225,1.063,17.539,3.188c11.693,4.252,21.26,12.756,27.107,23.386
		c10.629-11.161,17.539-26.574,17.539-43.582L487.914,469.31L487.914,469.31z"/>
	<path fill="#F37473" d="M443.268,498.541h-35.609c-11.693,4.252-21.26,12.756-27.106,23.917
		c11.161,11.693,27.106,18.603,44.645,18.603c17.539,0,33.484-7.44,45.178-19.134C464.528,510.766,454.961,502.793,443.268,498.541z
		"/>
	<path fill="#F37473" d="M407.659,498.541h35.609c-5.314-2.126-11.691-3.188-17.539-3.188
		C419.352,495.353,413.505,496.415,407.659,498.541z"/>
</g>
</svg>
