<?xml version="1.0" encoding="utf-8"?>
<!-- Generator: Adobe Illustrator 21.0.2, SVG Export Plug-In . SVG Version: 6.00 Build 0)  -->
<svg version="1.1" id="Layer_1" xmlns="http://www.w3.org/2000/svg" xmlns:xlink="http://www.w3.org/1999/xlink" x="0px" y="0px"
	 viewBox="0 0 104 160" style="enable-background:new 0 0 104 160;" xml:space="preserve">
<style type="text/css">
	.st0{fill:#F4DDBE;}
	.st1{opacity:0.15;fill:#5E5E5E;}
	.st2{fill:#BC9268;}
	.st3{fill:#A57447;}
	.st4{fill:#F8AC5A;}
	.st5{fill:#FBB56E;}
	.st6{fill:#010101;}
	.st7{fill:#F37473;}
</style>
<rect x="0" class="st0" width="104" height="160"/>
<path class="st1" d="M85.6,55l-2.7-24.4c-1-9.3-9.4-16.2-18.7-16.2H48.5c-9.3,0-17.8,7-18.7,16.3l-5.9,52.1l-1.3,11.6l-0.5,4.4
	l-0.7,6.2c-1,9.3,5.9,17.2,15.2,17.2h10.5l-0.4,11.5l0.1,0l-0.3,8.7c0,5.4,4.4,9.8,9.8,9.8c5.4,0,9.8-4.4,9.8-9.8l-0.7-20.2H76
	c9.3,0,16.2-7.8,15.2-17.1L85.6,55z"/>
<g>
	<g>
		<path class="st2" d="M61.8,139.2c0,5.4-4.4,9.8-9.8,9.8c-5.4,0-9.8-4.4-9.8-9.8l2-57.8c0-5.4,2.4-9.8,7.8-9.8
			c5.4,0,7.8,4.4,7.8,9.8L61.8,139.2z"/>
		<polygon class="st3" points="61.2,123.2 42.4,130.5 42.8,119 61.1,119 		"/>
		<g>
			<path class="st4" d="M86.9,101.9l-5.6-50.1C74.9,77.2,52,96,24.6,96c-2.3,0-4.6-0.1-6.8-0.4l-0.7,6.2c-1,9.3,5.9,17.2,15.2,17.2
				h39.4C81.1,119,87.9,111.2,86.9,101.9z"/>
			<path class="st5" d="M81.3,51.8l-2.7-24.4c-1-9.3-9.4-16.2-18.7-16.2H44.2c-9.3,0-17.8,7-18.7,16.3l-5.9,52.1l-1.3,11.6l-0.5,4.4
				c2.2,0.3,4.5,0.4,6.8,0.4C52,96,74.9,77.2,81.3,51.8z"/>
		</g>
	</g>
	<g>
		<g>
			<path class="st6" d="M30.2,84.3c0-2.1,1.7-3.8,3.8-3.8c2.1,0,3.8,1.7,3.8,3.8"/>
			<circle class="st6" cx="70.6" cy="82.1" r="3.8"/>
		</g>
		<g>
			<path class="st7" d="M35.2,93.8c0,2.2-1.8,4-4,4h-2.2c-2.2,0-4-1.8-4-4s1.8-4,4-4h2.2C33.4,89.9,35.2,91.7,35.2,93.8z"/>
			<path class="st7" d="M79.4,93.8c0,2.2-1.8,4-4,4h-2.2c-2.2,0-4-1.8-4-4s1.8-4,4-4h2.2C77.7,89.9,79.4,91.7,79.4,93.8z"/>
		</g>
		<g>
			<path class="st6" d="M40.6,88.5v0.2C40.6,88.6,40.6,88.5,40.6,88.5L40.6,88.5z"/>
			<path class="st6" d="M49,93.8h-5.6c-1.5,0-2.8-4.7-2.8-5v1.3c0,3.2,1.3,6.1,3.4,8.2C45.1,96.2,46.9,94.7,49,93.8z"/>
			<path class="st6" d="M64,88.5L64,88.5c0,0.1,0,0.2,0,0.3c0,0-1.3,5.1-2.9,5.1h-5.5c2.2,0.8,3.9,2.4,5,4.3c2-2.1,3.3-5,3.3-8.1
				V88.5z"/>
			<path class="st6" d="M40.6,88.8C40.6,88.8,40.6,88.8,40.6,88.8l0-0.1C40.6,88.7,40.6,88.8,40.6,88.8z"/>
			<path class="st6" d="M61.1,85.9H43.4c-1.5,0-2.7,1.1-2.8,2.5h23.3C63.8,87,62.6,85.9,61.1,85.9z"/>
			<path class="st6" d="M43.4,93.8H49c1-0.4,2.1-0.6,3.3-0.6c1.2,0,2.3,0.2,3.3,0.6h5.5c1.6,0,2.9-5.1,2.9-5.1c0-0.1,0-0.2,0-0.3
				H40.6c0,0.1,0,0.2,0,0.2v0.1C40.7,89.2,41.9,93.8,43.4,93.8z"/>
			<path class="st7" d="M55.7,93.8H49c-2.2,0.8-4,2.4-5.1,4.4c2.1,2.1,5.1,3.5,8.3,3.5c3.3,0,6.3-1.4,8.4-3.6
				C59.6,96.2,57.8,94.6,55.7,93.8z"/>
			<path class="st7" d="M49,93.8h6.6c-1-0.4-2.1-0.6-3.3-0.6C51.2,93.3,50.1,93.5,49,93.8z"/>
		</g>
	</g>
</g>
</svg>
