<?xml version="1.0" encoding="utf-8"?>
<!-- Generator: Adobe Illustrator 21.0.2, SVG Export Plug-In . SVG Version: 6.00 Build 0)  -->
<svg version="1.1" id="Layer_1" xmlns="http://www.w3.org/2000/svg" xmlns:xlink="http://www.w3.org/1999/xlink" x="0px" y="0px"
	 viewBox="0 0 104 160" style="enable-background:new 0 0 104 160;" xml:space="preserve">
<style type="text/css">
	.st0{fill:#F4DDBE;}
	.st1{opacity:0.15;fill:#5E5E5E;}
	.st2{fill:#DFB673;}
	.st3{fill:#C89D67;}
	.st4{fill:#F4D242;}
	.st5{fill:#FCD94A;}
	.st6{fill:#010101;}
	.st7{fill:#F37473;}
</style>
<rect x="0" class="st0" width="104" height="160"/>
<path class="st1" d="M79.2,14.8H32.9c-4.5,0-8.1,3.6-8.1,8.1v69.2v19.1c0,4.5,3.6,8.1,8.1,8.1h13.6l-0.8,22.9
	c0,5.6,4.5,10.2,10.2,10.2c5.6,0,10.2-4.5,10.2-10.2l-0.6-18.6l0.2-0.1l-0.1-4.2h13.7c4.5,0,8.1-3.6,8.1-8.1V65.9v-43
	C87.2,18.4,83.6,14.8,79.2,14.8z"/>
<g>
	<g>
		<path class="st2" d="M61.3,138.8c0,5.6-4.5,10.2-10.2,10.2c-5.6,0-10.2-4.5-10.2-10.2l2-59.9c0-5.6,2.5-10.2,8.1-10.2
			c5.6,0,8.1,4.5,8.1,10.2L61.3,138.8z"/>
		<polygon class="st3" points="60.9,120.2 41.5,127.6 41.9,116 60.8,116 		"/>
		<g>
			<path class="st4" d="M33.5,90.4c-4.6,0-9-0.5-13.3-1.6v19.1c0,4.5,3.6,8.1,8.1,8.1h46.2c4.5,0,8.1-3.6,8.1-8.1V62.7
				C72.5,79.3,54.3,90.4,33.5,90.4z"/>
			<path class="st5" d="M82.5,62.7v-43c0-4.5-3.6-8.1-8.1-8.1H28.2c-4.5,0-8.1,3.6-8.1,8.1v69.2c4.3,1,8.7,1.6,13.3,1.6
				C54.3,90.4,72.5,79.3,82.5,62.7z"/>
		</g>
	</g>
	<g>
		<g>
			<circle class="st6" cx="33" cy="79.1" r="3.8"/>
			<circle class="st6" cx="70" cy="79.1" r="3.8"/>
		</g>
		<g>
			<path class="st7" d="M34.3,91c0,2.2-1.8,4-4,4h-2.2c-2.2,0-4-1.8-4-4s1.8-4,4-4h2.2C32.5,87,34.3,88.7,34.3,91z"/>
			<path class="st7" d="M78.9,91c0,2.2-1.8,4-4,4h-2.2c-2.2,0-4-1.8-4-4s1.8-4,4-4h2.2C77.1,87,78.9,88.7,78.9,91z"/>
		</g>
		<g>
			<path class="st6" d="M39.7,85.5v0.2C39.7,85.7,39.7,85.6,39.7,85.5L39.7,85.5z"/>
			<path class="st6" d="M39.7,85.8C39.7,85.8,39.7,85.9,39.7,85.8l0-0.1C39.7,85.8,39.7,85.8,39.7,85.8z"/>
			<path class="st6" d="M63.3,85.5c-0.2-1.4-1.4-2.5-2.9-2.5H42.6c-1.5,0-2.7,1.1-2.9,2.5c0,0.1,0,0.2,0,0.2v0.1v1.3
				c0,3.2,1.3,6.1,3.4,8.3c1.1-2,2.9-3.7,5.1-4.5c1-0.4,2.2-0.6,3.3-0.6c1.2,0,2.3,0.2,3.3,0.6c2.2,0.8,4,2.4,5.1,4.4
				c2-2.1,3.3-5,3.3-8.2L63.3,85.5L63.3,85.5z"/>
			<path class="st7" d="M54.9,91h-6.7c-2.2,0.8-4,2.4-5.1,4.5c2.1,2.2,5.1,3.5,8.4,3.5c3.3,0,6.3-1.4,8.5-3.6
				C58.9,93.3,57.1,91.8,54.9,91z"/>
			<path class="st7" d="M48.2,91h6.7c-1-0.4-2.2-0.6-3.3-0.6C50.4,90.4,49.3,90.6,48.2,91z"/>
		</g>
	</g>
</g>
</svg>
