<?xml version="1.0" encoding="utf-8"?>
<!-- Generator: Adobe Illustrator 16.0.3, SVG Export Plug-In . SVG Version: 6.00 Build 0)  -->
<!DOCTYPE svg PUBLIC "-//W3C//DTD SVG 1.1//EN" "http://www.w3.org/Graphics/SVG/1.1/DTD/svg11.dtd">
<svg version="1.1" id="Layer_1" xmlns="http://www.w3.org/2000/svg" xmlns:xlink="http://www.w3.org/1999/xlink" x="0px" y="0px"
	 width="552.754px" height="850.391px" viewBox="148.818 0 552.754 850.391" enable-background="new 148.818 0 552.754 850.391"
	 xml:space="preserve">
<rect x="148.818" fill="#F4DDBE" width="552.754" height="850.391"/>
<path opacity="0.15" fill="#5E5E5E" enable-background="new    " d="M610.686,327.932l-18.603-165.294
	c-5.314-49.429-49.96-86.102-99.921-86.102H409.25c-49.43,0-94.606,36.673-99.921,86.102l-31.358,277.44l-6.909,61.653
	l-2.657,21.791l-3.721,35.078c-5.315,49.43,31.358,91.949,80.787,91.949h56.869l-3.721,106.83c0,28.7,23.387,52.086,52.087,52.086
	s52.086-23.386,52.086-52.086l-2.657-84.508h0.531l-0.531-22.322h55.275c49.429,0,86.103-41.988,80.787-91.417L610.686,327.932z"/>
<g>
	<path fill="#BC9268" d="M478.344,739.84c0,28.7-23.386,52.086-52.086,52.086c-28.701,0-52.087-23.386-52.087-52.086l10.63-307.735
		c0-28.7,12.756-52.086,41.988-52.086c28.7,0,41.988,23.386,41.988,52.086L478.344,739.84z"/>
	<polygon fill="#A57447" points="476.218,655.332 376.297,694.131 377.892,633.009 475.687,633.009 	"/>
	<g>
		<path fill="#F48161" d="M611.749,541.592l-26.044-231.199c-41.456,116.929-153.07,200.904-284.349,200.904
			c-19.665,0-38.799-2.126-57.401-5.314l-3.721,35.078c-5.314,49.429,31.358,91.948,80.787,91.948h209.94
			C580.391,633.009,617.064,591.021,611.749,541.592z"/>
		<path fill="#F58C75" d="M585.705,310.393l-18.602-165.295c-5.315-49.429-49.961-86.102-99.921-86.102H384.27
			c-49.429,0-94.605,36.673-99.921,86.102l-31.358,277.44l-6.909,61.652l-2.657,21.792c18.603,3.72,37.736,5.314,57.401,5.314
			C432.635,511.828,544.249,427.853,585.705,310.393z"/>
	</g>
</g>
<g>
	<path fill="#010101" d="M309.329,439.014c0-11.161,9.035-20.196,20.196-20.196s20.197,9.035,20.197,20.196"/>
	<circle fill="#010101" cx="524.584" cy="429.447" r="20.197"/>
</g>
<g>
	<path fill="#F04E4D" d="M335.904,491.632c0,11.692-9.566,21.26-21.26,21.26h-11.692c-11.693,0-21.26-9.567-21.26-21.26
		s9.566-21.26,21.26-21.26h11.692C326.868,470.372,335.904,479.939,335.904,491.632z"/>
	<path fill="#F04E4D" d="M563.383,499.072c0,11.693-9.567,21.26-21.26,21.26H530.43c-11.692,0-21.26-9.566-21.26-21.26
		c0-11.692,9.567-21.26,21.26-21.26h11.693C554.348,478.345,563.383,487.38,563.383,499.072z"/>
</g>
<g>
	<path fill="#010101" d="M360.734,464.392v1.063C360.734,465.454,360.734,464.923,360.734,464.392L360.734,464.392z"/>
	<path fill="#010101" d="M360.734,465.985C360.734,465.985,360.734,466.517,360.734,465.985v-0.531
		C360.734,465.985,360.734,465.985,360.734,465.985z"/>
	<path fill="#010101" d="M486.166,464.392c-1.063-7.441-7.44-13.288-15.413-13.288h-94.605c-7.973,0-14.351,5.847-15.414,13.288
		c0,0.531,0,1.063,0,1.063v0.531v6.91c0,17.007,6.91,32.421,18.071,44.113c5.847-10.63,15.413-19.665,27.106-23.917
		c5.314-2.126,11.692-3.188,17.539-3.188c6.378,0,12.225,1.063,17.539,3.188c11.692,4.252,21.26,12.756,27.106,23.386
		c10.63-11.161,17.539-26.574,17.539-43.582L486.166,464.392L486.166,464.392z"/>
	<path fill="#F04E4D" d="M441.521,493.623h-35.609c-11.693,4.252-21.26,12.756-27.106,23.917
		c11.161,11.693,27.106,18.603,44.646,18.603s33.484-7.44,45.177-19.134C462.781,505.848,453.214,497.875,441.521,493.623z"/>
	<path fill="#F04E4D" d="M405.911,493.623h35.609c-5.314-2.126-11.692-3.188-17.539-3.188
		C417.604,490.435,411.757,491.497,405.911,493.623z"/>
</g>
</svg>
