<?xml version="1.0" encoding="utf-8"?>
<!-- Generator: Adobe Illustrator 21.0.2, SVG Export Plug-In . SVG Version: 6.00 Build 0)  -->
<svg version="1.1" id="Layer_1" xmlns="http://www.w3.org/2000/svg" xmlns:xlink="http://www.w3.org/1999/xlink" x="0px" y="0px"
	 viewBox="0 0 104 160" style="enable-background:new 0 0 104 160;" xml:space="preserve">
<style type="text/css">
	.st0{fill:#F4DDBE;}
	.st1{opacity:0.15;fill:#5E5E5E;}
	.st2{fill:#BC9268;}
	.st3{fill:#A57447;}
	.st4{fill:#F48161;}
	.st5{fill:#F58C75;}
	.st6{fill:#010101;}
	.st7{fill:#F04E4D;}
	.st8{fill:#F37473;}
</style>
<rect x="0" class="st0" width="104" height="160"/>
<path class="st1" d="M86.9,61.7l-3.5-31.1c-1-9.3-9.4-16.2-18.8-16.2H49c-9.3,0-17.8,6.9-18.8,16.2l-5.9,52.2L23,94.4l-0.5,4.1
	l-0.7,6.6c-1,9.3,5.9,17.3,15.2,17.3h10.7l-0.7,20.1c0,5.4,4.4,9.8,9.8,9.8c5.4,0,9.8-4.4,9.8-9.8l-0.5-15.9l0.1,0l-0.1-4.2h10.4
	c9.3,0,16.2-7.9,15.2-17.2L86.9,61.7z"/>
<g>
	<g>
		<path class="st2" d="M62,139.2c0,5.4-4.4,9.8-9.8,9.8c-5.4,0-9.8-4.4-9.8-9.8l2-57.9c0-5.4,2.4-9.8,7.9-9.8c5.4,0,7.9,4.4,7.9,9.8
			L62,139.2z"/>
		<polygon class="st3" points="61.6,123.3 42.8,130.6 43.1,119.1 61.5,119.1 		"/>
		<g>
			<path class="st4" d="M87.1,101.9l-4.9-43.5c-7.8,22-28.8,37.8-53.5,37.8c-3.7,0-7.3-0.4-10.8-1l-0.7,6.6
				c-1,9.3,5.9,17.3,15.2,17.3h39.5C81.2,119.1,88.1,111.2,87.1,101.9z"/>
			<path class="st5" d="M82.2,58.4l-3.5-31.1c-1-9.3-9.4-16.2-18.8-16.2H44.3c-9.3,0-17.8,6.9-18.8,16.2l-5.9,52.2l-1.3,11.6
				l-0.5,4.1c3.5,0.7,7.1,1,10.8,1C53.4,96.3,74.4,80.5,82.2,58.4z"/>
		</g>
	</g>
	<g>
		<g>
			<path class="st6" d="M30.2,82.6c0-2.1,1.7-3.8,3.8-3.8c2.1,0,3.8,1.7,3.8,3.8"/>
			<circle class="st6" cx="70.7" cy="80.8" r="3.8"/>
		</g>
		<g>
			<path class="st7" d="M35.2,92.5c0,2.2-1.8,4-4,4h-2.2c-2.2,0-4-1.8-4-4c0-2.2,1.8-4,4-4h2.2C33.5,88.5,35.2,90.3,35.2,92.5z"/>
			<path class="st7" d="M78,93.9c0,2.2-1.8,4-4,4h-2.2c-2.2,0-4-1.8-4-4s1.8-4,4-4h2.2C76.3,90,78,91.7,78,93.9z"/>
		</g>
		<g>
			<path class="st6" d="M40.6,87.1v0.2C40.6,87.2,40.6,87.2,40.6,87.1L40.6,87.1z"/>
			<path class="st6" d="M49.1,92.5h-5.6c-1.5,0-2.8-4.7-2.8-5v1.3c0,3.2,1.3,6.1,3.4,8.2C45.1,94.9,46.9,93.3,49.1,92.5z"/>
			<path class="st6" d="M64,87.1L64,87.1c0,0.1,0,0.2,0,0.3c0,0-1.3,5.1-2.9,5.1h-5.5c2.2,0.8,3.9,2.4,5,4.3c2-2.1,3.3-5,3.3-8.1
				V87.1z"/>
			<path class="st6" d="M40.6,87.4C40.6,87.4,40.6,87.4,40.6,87.4l0-0.1C40.6,87.3,40.6,87.4,40.6,87.4z"/>
			<path class="st6" d="M61.2,84.6H43.5c-1.5,0-2.7,1.1-2.8,2.5H64C63.8,85.7,62.6,84.6,61.2,84.6z"/>
			<path class="st6" d="M43.5,92.5h5.6c1-0.4,2.1-0.6,3.3-0.6c1.2,0,2.3,0.2,3.3,0.6h5.5c1.6,0,2.9-5.1,2.9-5.1c0-0.1,0-0.2,0-0.3
				H40.6c0,0.1,0,0.2,0,0.2v0.1C40.7,87.8,42,92.5,43.5,92.5z"/>
			<path class="st7" d="M55.7,92.1h-6.6c-2.2,0.8-4,2.4-5.1,4.4c2.1,2.1,5.1,3.5,8.3,3.5c3.3,0,6.3-1.4,8.4-3.6
				C59.6,94.5,57.8,92.9,55.7,92.1z"/>
			<path class="st8" d="M49.1,92.5h6.6c-1-0.4-2.1-0.6-3.3-0.6C51.2,91.9,50.1,92.1,49.1,92.5z"/>
		</g>
	</g>
</g>
</svg>
